<svg width="100" height="100" viewBox="0 0 100 100" fill="none" xmlns="http://www.w3.org/2000/svg">
<circle opacity="0.05" cx="50" cy="50" r="50" fill="#FF317B"/>
<g clip-path="url(#clip0_10355_9809)">
<path d="M41.1423 44.863L38.2427 47.1578H34.4701C32.4344 47.1578 30.7871 48.8058 30.7871 50.8412C30.7871 52.8763 32.4345 54.5248 34.4701 54.5248H39.527C40.356 54.5248 41.163 54.2455 41.8126 53.7296L43.8606 52.1079V57.4567L38.9916 58.7432C37.9101 59.0289 36.9914 59.7425 36.447 60.7197C35.9026 61.6969 35.7794 62.8537 36.1057 63.9237L38.685 72.3828C39.1667 73.9731 40.6284 75 42.2096 75C42.5633 75 42.9215 74.9484 43.278 74.8395C45.227 74.2511 46.3264 72.1933 45.7363 70.2458L44.1483 65.0004L49.9992 63.4611L55.8528 65.0004L54.264 70.2458C53.6747 72.1934 54.7743 74.2511 56.7213 74.8395C57.0778 74.9484 57.4379 75 57.7916 75C59.371 75 60.8325 73.9731 61.3143 72.3828L63.8884 63.9133C64.2138 62.843 64.0895 61.6864 63.544 60.7096C62.9986 59.7329 62.0793 59.0201 60.9974 58.7355L53.7257 56.8219L41.1423 44.863Z" fill="#FF317B"/>
<path d="M65.531 47.1578H61.7564L55.2305 41.9888C55.0778 41.8686 54.9165 41.7696 54.7524 41.6777C53.3266 42.4381 51.7256 42.9098 49.9991 42.9098C48.2793 42.9098 46.68 42.44 45.2571 41.6831C45.241 41.6918 45.2231 41.6937 45.207 41.7036L56.2384 52.1863L58.1865 53.7296C58.8389 54.2455 59.6452 54.5248 60.474 54.5248H65.5309C67.5648 54.5248 69.214 52.8764 69.214 50.8412C69.2141 48.8058 67.5649 47.1578 65.531 47.1578Z" fill="#FF317B"/>
<path d="M49.9999 40.4531C54.2684 40.4531 57.729 36.9947 57.729 32.7275C57.7291 28.4599 54.2684 25 49.9999 25C45.7341 25 42.2734 28.4599 42.2734 32.7275C42.2735 36.9948 45.7342 40.4531 49.9999 40.4531Z" fill="#FF317B"/>
</g>
<defs>
<clipPath id="clip0_10355_9809">
<rect width="50" height="50" fill="white" transform="translate(25 25)"/>
</clipPath>
</defs>
</svg>
