<svg width="100" height="100" viewBox="0 0 100 100" fill="none" xmlns="http://www.w3.org/2000/svg">
<circle opacity="0.05" cx="50" cy="50" r="50" fill="#00FFA3"/>
<path d="M68.3256 34.1525L52.6508 25.677C51.0008 24.7743 49.0009 24.7743 47.3509 25.677L31.6761 34.1525C30.5262 34.7793 29.8262 35.983 29.8262 37.3621C29.8262 38.7162 30.5262 39.9448 31.6761 40.5717L47.3509 49.0471C48.1759 49.4985 49.1009 49.7242 50.0009 49.7242C50.9008 49.7242 51.8258 49.4985 52.6508 49.0471L68.3256 40.5717C69.4755 39.9448 70.1755 38.7412 70.1755 37.3621C70.1755 35.983 69.4755 34.7793 68.3256 34.1525Z" fill="#00FFA3"/>
<path d="M44.7747 51.9809L30.1749 44.6589C29.0499 44.1073 27.75 44.1574 26.7 44.8094C25.625 45.4864 25 46.6148 25 47.8686V61.685C25 64.0672 26.325 66.2236 28.4499 67.3019L43.0247 74.6238C43.5247 74.8746 44.0747 75 44.6247 75C45.2747 75 45.9247 74.8244 46.4997 74.4734C47.5746 73.8214 48.1996 72.668 48.1996 71.4142V57.5977C48.2246 55.1905 46.8997 53.0341 44.7747 51.9809Z" fill="#00FFA3"/>
<path d="M73.2985 44.8094C72.2235 44.1574 70.9235 44.0822 69.8235 44.6589L55.2488 51.9809C53.1238 53.0591 51.7988 55.1905 51.7988 57.5978V71.4142C51.7988 72.668 52.4238 73.8214 53.4988 74.4734C54.0738 74.8244 54.7238 75 55.3738 75C55.9238 75 56.4738 74.8746 56.9737 74.6238L71.5485 67.3019C73.6735 66.2236 74.9985 64.0922 74.9985 61.685V47.8686C74.9985 46.6148 74.3735 45.4864 73.2985 44.8094Z" fill="#00FFA3"/>
</svg>
