<svg width="100" height="100" viewBox="0 0 100 100" fill="none" xmlns="http://www.w3.org/2000/svg">
<circle opacity="0.05" cx="50" cy="50" r="50" fill="#219FFF"/>
<path d="M52.4403 42.736C53.0223 42.729 53.5493 42.49 53.9323 42.108C54.3203 41.719 54.5603 41.183 54.5603 40.59C54.5603 39.405 53.5993 38.445 52.4143 38.445H50.8274V36.449H49.4534V38.445H48.4624V36.449H47.0884V38.445H44.5684V39.819H46.0974V47.347H44.5684V48.721H47.0884V50.717H48.4624V48.72H49.4534V50.716H50.8274V48.72H52.4403C53.2663 48.72 54.0143 48.385 54.5563 47.844C55.0983 47.302 55.4323 46.554 55.4323 45.728C55.4323 44.076 54.0933 42.736 52.4403 42.736ZM48.5224 39.916H50.5684C50.9454 39.916 51.2874 40.069 51.5344 40.317C51.7824 40.565 51.9353 40.906 51.9353 41.284C51.9353 42.039 51.3234 42.652 50.5684 42.652H48.5224V39.916ZM50.9414 47.209H48.5224V43.975H50.9414C51.3874 43.975 51.7923 44.156 52.0843 44.448C52.3763 44.74 52.5573 45.145 52.5573 45.591C52.5583 46.485 51.8343 47.209 50.9414 47.209Z" fill="#4991FF"/>
<path d="M57.6971 44.7129C57.3691 44.2569 57.2051 43.6479 57.2051 42.8839C57.2051 42.1199 57.3691 41.5109 57.6971 41.0549C58.0261 40.5999 58.5201 40.3719 59.1821 40.3719C59.8431 40.3719 60.3391 40.5999 60.6671 41.0549C60.9951 41.5109 61.1591 42.1199 61.1591 42.8839C61.1591 43.6479 60.9951 44.2569 60.6671 44.7129C60.3381 45.1689 59.8431 45.3969 59.1821 45.3969C58.5211 45.3969 58.0261 45.1689 57.6971 44.7129ZM58.2841 41.5729C58.0921 41.9059 57.9961 42.3429 57.9961 42.8849C57.9961 43.4259 58.0921 43.8629 58.2841 44.1969C58.4761 44.5299 58.7751 44.6969 59.1831 44.6969C59.5911 44.6969 59.8871 44.5319 60.0751 44.2009C60.2631 43.8699 60.3561 43.4319 60.3561 42.8859C60.3561 42.3399 60.2621 41.9019 60.0751 41.5709C59.8871 41.2399 59.5901 41.0749 59.1831 41.0749C58.7761 41.0749 58.4761 41.2399 58.2841 41.5729Z" fill="#4991FF"/>
<path d="M63.41 51.19C63.082 50.734 62.918 50.125 62.918 49.361C62.918 48.597 63.082 47.988 63.41 47.532C63.739 47.077 64.233 46.849 64.895 46.849C65.556 46.849 66.052 47.077 66.38 47.532C66.708 47.988 66.872 48.597 66.872 49.361C66.872 50.125 66.708 50.734 66.38 51.19C66.051 51.646 65.556 51.874 64.895 51.874C64.233 51.874 63.738 51.646 63.41 51.19ZM63.996 48.05C63.804 48.383 63.708 48.82 63.708 49.362C63.708 49.903 63.804 50.34 63.996 50.674C64.188 51.007 64.487 51.174 64.895 51.174C65.303 51.174 65.599 51.009 65.787 50.678C65.975 50.347 66.068 49.909 66.068 49.363C66.068 48.817 65.974 48.379 65.787 48.048C65.599 47.717 65.302 47.552 64.895 47.552C64.488 47.552 64.188 47.717 63.996 48.05Z" fill="#4991FF"/>
<path d="M34.701 51.19C34.373 50.734 34.209 50.125 34.209 49.361C34.209 48.597 34.373 47.988 34.701 47.532C35.03 47.077 35.524 46.849 36.186 46.849C36.847 46.849 37.343 47.077 37.671 47.532C37.999 47.988 38.163 48.597 38.163 49.361C38.163 50.125 37.999 50.734 37.671 51.19C37.342 51.646 36.847 51.874 36.186 51.874C35.525 51.874 35.03 51.646 34.701 51.19ZM35.288 48.05C35.096 48.383 35 48.82 35 49.362C35 49.903 35.096 50.34 35.288 50.674C35.48 51.007 35.779 51.174 36.187 51.174C36.594 51.174 36.891 51.009 37.079 50.678C37.267 50.347 37.36 49.909 37.36 49.363C37.36 48.817 37.266 48.379 37.079 48.048C36.891 47.717 36.594 47.552 36.187 47.552C35.78 47.55 35.48 47.717 35.288 48.05Z" fill="#4991FF"/>
<path d="M65.1787 35.7939H66.9417V40.6449H66.1637V36.5229H65.1777V35.7939H65.1787Z" fill="#4991FF"/>
<path d="M33.0586 35.7939H34.8216V40.6449H34.0436V36.5229H33.0586V35.7939Z" fill="#4991FF"/>
<path d="M39.542 42.2789H41.305V47.1299H40.527V43.0079H39.541V42.2789H39.542Z" fill="#4991FF"/>
<path d="M30.3477 33.552H69.6517V53.612H30.3477V33.552Z" fill="#4991FF"/>
<path d="M60.315 68.827H58.885L56.475 64.667H43.525L41.115 68.827H39.685C38.965 68.827 38.375 69.417 38.375 70.137C38.375 70.827 38.925 71.387 39.605 71.427L39.595 71.447H60.405L60.395 71.427C61.085 71.387 61.625 70.827 61.625 70.137C61.625 69.417 61.035 68.827 60.315 68.827Z" fill="#4991FF"/>
<path d="M71.6516 28.553H28.3477C26.6907 28.553 25.3477 29.896 25.3477 31.553V59.671C25.3477 61.328 26.6907 62.671 28.3477 62.671H71.6506C73.3076 62.671 74.6506 61.328 74.6506 59.671V31.553C74.6516 29.896 73.3076 28.553 71.6516 28.553ZM49.9997 60.641C49.1717 60.641 48.4997 59.969 48.4997 59.141C48.4997 58.313 49.1717 57.641 49.9997 57.641C50.8277 57.641 51.4997 58.313 51.4997 59.141C51.4997 59.969 50.8277 60.641 49.9997 60.641ZM71.6516 55.612H28.3477V31.553H71.6516V55.612Z" fill="#4991FF"/>
</svg>
