<svg xmlns="http://www.w3.org/2000/svg" class="banner__decorator" viewBox="0 0 1600 167"><path fill="#fff" fill-rule="evenodd" d="m1220.4 53.7 3.1 4.2c23.6 32.5 46.2 29.3 51.1 28.9 13.4-1.3 43.9-4.4 87.3-8.9 19.2 22.4 36.7 20 40.7 19.6 22.1-2.2 95.8-9.7 197.5-20.3V167H0V.4c23.4 31.8 44.3 59.1 76.9 103.4 23.3 31.6 29.7 45.5 46.2 53.6 15 7.2 25.6 5.2 67.4 1.5 179.9-16.2 674.6-67.7 1029.9-105.2" clip-rule="evenodd"/><linearGradient id="a" x1="1540.168" x2="1541.168" y1="-.844" y2="-.844" gradientTransform="matrix(265.1083 0 0 84.8126 -406976.531 126.964)" gradientUnits="userSpaceOnUse"><stop offset="0" stop-color="#0070b9"/><stop offset="1" stop-color="#036"/></linearGradient><path fill="url(#a)" fill-rule="evenodd" d="M1600 77.2c-101.7 10.5-175.4 18.1-197.5 20.3-4.3.4-24.5 3.3-45.5-25.7l-22.1-30.4c132.4-14 231.7-24.7 265.1-28.4z" clip-rule="evenodd"/><path fill="#1fa2ff" fill-rule="evenodd" d="M1600 53.2c-166.5 17.4-293.7 30.4-325.4 33.6-4.9.5-27.5 3.7-51.1-28.9l-3.2-4.4C1408.4 33.6 1557.5 17.7 1600 13z" clip-rule="evenodd" opacity=".75"/></svg>