<svg width="100" height="100" viewBox="0 0 100 100" fill="none" xmlns="http://www.w3.org/2000/svg">
<circle opacity="0.05" cx="50" cy="50" r="50" fill="#FBBA28"/>
<g clip-path="url(#clip0_10355_4731)">
<path d="M32.7148 52.9901H37.1712V56.2795H32.7148V52.9901Z" fill="#FBBA28"/>
<path d="M72.0364 44.277H27.9624C26.3468 44.277 25.0371 45.5866 25.0371 47.2023V72.0747C25.0371 73.6903 26.3468 74.9999 27.9624 74.9999H72.0364C73.6521 74.9999 74.9617 73.6903 74.9617 72.0746V47.2023C74.9617 45.5866 73.6521 44.277 72.0364 44.277ZM36.835 68.6524H29.5945V65.7271H36.835V68.6524ZM40.0961 56.767C40.0961 58.1112 39.0025 59.2047 37.6584 59.2047H32.2269C30.8827 59.2047 29.7892 58.1112 29.7892 56.767V52.5026C29.7892 51.1584 30.8827 50.0649 32.2269 50.0649H37.6583C39.0024 50.0649 40.096 51.1584 40.096 52.5026V56.767H40.0961ZM48.0247 68.6524H40.7843V65.7271H48.0247V68.6524ZM59.2146 68.6524H51.9741V65.7271H59.2146V68.6524ZM70.4043 68.6524H63.1639V65.7271H70.4043V68.6524Z" fill="#FBBA28"/>
<path d="M64.3069 32.106L58.0577 25.8568C56.9153 24.7144 55.0632 24.7144 53.9207 25.8568L38.4258 41.3517H55.5895L64.3069 32.106Z" fill="#FBBA28"/>
<path d="M64.1267 41.3517L68.7008 36.5004L66.3758 34.1754L59.6094 41.3517H64.1267Z" fill="#FBBA28"/>
<path d="M72.037 41.3517C72.6653 41.3517 73.2704 41.4524 73.8382 41.6366L70.7714 38.5698L68.1484 41.3518H72.037V41.3517Z" fill="#FBBA28"/>
</g>
<defs>
<clipPath id="clip0_10355_4731">
<rect width="50" height="50" fill="white" transform="translate(25 25)"/>
</clipPath>
</defs>
</svg>
