<svg width="100" height="100" viewBox="0 0 100 100" fill="none" xmlns="http://www.w3.org/2000/svg">
<circle opacity="0.05" cx="50" cy="50" r="50" fill="#00CE60"/>
<path d="M43.9024 50V74H31.0976C29.0799 74 27.439 72.3854 27.439 70.4V49.8788C27.8329 49.958 28.2409 50 28.6585 50H43.9024ZM46.3415 50V74H53.6585V50H46.3415ZM71.3415 50H56.0976V74H68.9024C70.9201 74 72.561 72.3854 72.561 70.4V49.8788C72.1671 49.958 71.7591 50 71.3415 50ZM75 39.2V44C75 45.9854 73.3591 47.6 71.3415 47.6H28.6585C26.6409 47.6 25 45.9854 25 44V39.2C25 37.2146 26.6409 35.6 28.6585 35.6H40.2555C39.4866 34.5956 39.0244 33.3512 39.0244 32C39.0244 28.6916 41.7598 26 45.122 26C47.1177 26 48.8872 26.9528 50 28.4156C51.1134 26.9528 52.8823 26 54.878 26C58.2402 26 60.9756 28.6916 60.9756 32C60.9756 33.3512 60.5134 34.5956 59.7445 35.6H71.3415C73.3591 35.6 75 37.2146 75 39.2ZM51.2195 32V35.6H54.878C56.8957 35.6 58.5366 33.9854 58.5366 32C58.5366 30.0146 56.8957 28.4 54.878 28.4C52.8604 28.4 51.2195 30.0146 51.2195 32ZM45.122 35.6H48.7805V32C48.7805 30.0146 47.1396 28.4 45.122 28.4C43.1043 28.4 41.4634 30.0146 41.4634 32C41.4634 33.9854 43.1043 35.6 45.122 35.6Z" fill="#00CE60"/>
</svg>
