<svg width="100" height="100" viewBox="0 0 100 100" fill="none" xmlns="http://www.w3.org/2000/svg">
<circle opacity="0.05" cx="50" cy="50" r="50" fill="#5D5FEF"/>
<g clip-path="url(#clip0_10355_9830)">
<path d="M35.613 42.646L40.6023 32.4356L47.7461 52.2167L51.1221 41.9628H75.0002C75.0151 39.2597 74.2784 36.5928 72.7892 34.1602C69.2209 28.3325 64.2481 27.0778 60.7046 27.0511C60.6661 27.0508 60.6279 27.0508 60.5894 27.0508C57.6052 27.0508 54.6552 27.9171 52.0548 29.5578L50.0009 30.8441L47.9513 29.5601C45.3134 27.8961 42.322 27.0271 39.2973 27.0511C35.7542 27.0778 30.781 28.3325 27.2131 34.1602C25.5983 36.7977 24.8663 39.7106 25.02 42.646H35.613Z" fill="#5D5FEF"/>
<path d="M53.2417 44.8917L47.8744 61.1949L40.1973 39.9364L37.4419 45.5753H25.4688C25.8025 46.8864 26.3145 48.1853 27.0053 49.4491C29.1278 53.3298 32.4203 56.4281 35.604 59.4238C36.1652 59.9514 36.695 60.4499 37.2218 60.9561C39.1971 62.8528 41.1975 64.6816 43.1319 66.4505C45.0526 68.2064 47.0386 70.0218 48.9871 71.8929L50.0014 72.8668L51.0158 71.8929C52.9647 70.0218 54.951 68.2056 56.8717 66.4497C58.8058 64.6812 60.8058 62.8524 62.7811 60.9558C63.3079 60.4499 63.8377 59.9514 64.3989 59.4238C67.5826 56.4277 70.8751 53.3298 72.9976 49.4491C73.8086 47.966 74.3713 46.4347 74.6902 44.8917H53.2417Z" fill="#5D5FEF"/>
</g>
<defs>
<clipPath id="clip0_10355_9830">
<rect width="50" height="50" fill="white" transform="translate(25 25)"/>
</clipPath>
</defs>
</svg>
