<svg xmlns="http://www.w3.org/2000/svg" xml:space="preserve" id="Layer_1" x="0" y="0" version="1.1" viewBox="10.7 342 120.7 135.3"><style>.st3{fill:#5bcbf5}</style><linearGradient id="SVGID_1_" x1="40.263" x2="184.563" y1="368.75" y2="368.75" gradientTransform="matrix(1 0 0 -1 0 796)" gradientUnits="userSpaceOnUse"><stop offset="0" style="stop-color:#57cbf5"/><stop offset="1" style="stop-color:#466ab2"/></linearGradient><path d="m99.1 414-26.2 26.5L46.4 414z" style="fill:url(#SVGID_1_)"/><linearGradient id="SVGID_2_" x1="13.984" x2="122.861" y1="407.8" y2="407.8" gradientTransform="matrix(1 0 0 -1 0 796)" gradientUnits="userSpaceOnUse"><stop offset="0" style="stop-color:#5bcbf5"/><stop offset="1" style="stop-color:#426ab3"/></linearGradient><path d="M72.8 425.6c-20.1 0-36.5-16.8-36.5-37.4s16.4-37.4 36.5-37.4c11.5 0 22 5.4 29 14.7 2.9 3.9 2.1 9.4-1.8 12.3s-9.4 2.1-12.3-1.8c-3.6-4.9-9-7.6-14.9-7.6-10.4 0-18.9 8.9-18.9 19.8S62.4 408 72.8 408c5.9 0 11.4-2.8 15-7.8 2.9-3.9 8.4-4.8 12.3-1.9s4.8 8.4 1.9 12.3c-7 9.5-17.6 15-29.2 15" style="fill:url(#SVGID_2_)"/><linearGradient id="SVGID_3_" x1="126.097" x2="8.736" y1="385.06" y2="385.06" gradientTransform="matrix(1 0 0 -1 0 796)" gradientUnits="userSpaceOnUse"><stop offset="0" style="stop-color:#5bcbf5"/><stop offset="1" style="stop-color:#436ab3"/></linearGradient><path d="M100.1 398.2c-3.8-2.8-9-2.1-11.9 1.5-1.8 2.6-4.2 4.7-7 6.2 0 0-.1 0-.1.1-.5.3-1.1.5-1.6.7-.2.1-.3.1-.5.2l-.9.3c-.4.1-.7.2-1.1.3-.2.1-.5.1-.7.2-.4.1-.9.2-1.3.2h-.5c-.5 0-1 .1-1.5.1h-.2c-.5 0-1 0-1.5-.1h-.5c-.5-.1-.9-.1-1.3-.2-.2 0-.5-.1-.7-.2-.4-.1-.8-.2-1.1-.3l-.9-.3c-.2-.1-.3-.1-.5-.2-.5-.2-1.1-.5-1.6-.7 0 0-.1 0-.1-.1-2.8-1.4-5.2-3.6-7-6.2-3-3.5-8.2-4.2-11.9-1.5-3.9 2.9-4.8 8.4-1.9 12.3 2.6 3.5 5.7 6.5 9.1 8.8.2.1.3.2.5.3.4.2.7.5 1.1.7.2.2.5.3.8.4.3.2.6.3.9.5s.6.3.9.5c.3.1.6.3.9.4s.6.3.9.4c.6.2 1.1.5 1.7.7.2.1.5.2.7.2.4.1.8.3 1.2.4.2.1.5.1.7.2.4.1.9.2 1.3.3.2.1.4.1.6.1.5.1.9.2 1.4.3.2 0 .4.1.5.1.5.1 1.1.2 1.6.2.1 0 .3 0 .4.1.6.1 1.2.1 1.9.2h.2c.7 0 1.4.1 2.1.1s1.4 0 2.1-.1h.2c.6 0 1.2-.1 1.9-.2.1 0 .3 0 .4-.1.5-.1 1.1-.1 1.6-.2.2 0 .4-.1.5-.1.5-.1.9-.2 1.4-.3.2 0 .4-.1.6-.1.4-.1.9-.2 1.3-.3.2-.1.5-.1.7-.2.4-.1.8-.3 1.2-.4.2-.1.5-.2.7-.2.6-.2 1.1-.4 1.7-.7.3-.1.6-.3.9-.4s.6-.3.9-.4.6-.3.9-.5.6-.3.9-.5c.3-.1.5-.3.8-.4.4-.2.7-.4 1.1-.7.2-.1.3-.2.5-.3 3.4-2.3 6.5-5.3 9.1-8.8 2.3-3.9 1.5-9.4-2.5-12.3" style="fill:url(#SVGID_3_)"/><circle cx="73.3" cy="388.7" r="10.1" class="st3"/><text class="st3" style="font-family:&quot;OpenSans-Light&quot;;font-size:24px" transform="translate(21 473.333)">LOADING</text></svg>