<svg xmlns="http://www.w3.org/2000/svg" width="141" height="38" fill="none"><path fill="url(#a)" d="M24.96 26.365 14.53 37 4.02 26.365z"/><path fill="url(#b)" d="M14.53 31.02C6.53 31.02 0 24.278 0 16.01S6.529 1 14.53 1c4.578 0 8.758 2.167 11.545 5.9a3.544 3.544 0 0 1-.717 4.936 3.48 3.48 0 0 1-4.896-.722c-1.434-1.967-3.583-3.05-5.932-3.05-4.14 0-7.524 3.572-7.524 7.946 0 4.375 3.344 7.946 7.524 7.946 2.349 0 4.538-1.123 5.971-3.13 1.155-1.565 3.344-1.926 4.897-.762 1.552 1.163 1.91 3.37.756 4.936-2.786 3.813-7.046 6.02-11.624 6.02"/><path fill="url(#c)" d="M25.398 20.023a3.417 3.417 0 0 0-4.737.602 7.94 7.94 0 0 1-2.787 2.489s-.04 0-.04.04c-.199.12-.438.2-.637.28-.08 0-.159.04-.199.04l-.358.121c-.16.04-.279.08-.438.12-.08.04-.199.04-.279.081-.159.04-.358.08-.517.08h-.2c-.198 0-.397.04-.596.04h-.08c-.199 0-.398 0-.597-.04h-.2c-.198-.04-.357-.04-.517-.08a.7.7 0 0 1-.278-.08c-.16-.04-.319-.08-.438-.12l-.358-.121c-.08-.04-.12-.04-.2-.08-.199-.08-.437-.201-.636-.281 0 0-.04 0-.04-.04-1.115-.562-2.07-1.445-2.787-2.489-1.194-1.404-3.264-1.685-4.737-.602-1.553 1.164-1.91 3.372-.756 4.937 1.035 1.404 2.269 2.608 3.622 3.531.08.04.12.08.2.12.159.081.278.202.437.282.08.08.2.12.319.16.119.08.238.12.358.201.12.08.239.12.358.2.12.04.239.121.358.161.12.04.24.12.359.16.239.081.438.201.676.282.08.04.2.08.28.08.158.04.318.12.477.16.08.04.199.04.279.08.159.04.358.081.517.121.08.04.16.04.239.04.199.04.358.08.557.12.08 0 .16.04.2.04.198.041.437.081.636.081.04 0 .12 0 .16.04.238.04.477.04.756.08h.08c.278 0 .557.04.835.04.279 0 .558 0 .836-.04h.08c.239 0 .478-.04.756-.08.04 0 .12 0 .16-.04.199-.04.437-.04.636-.08.08 0 .16-.04.2-.04.198-.04.358-.08.557-.12.08 0 .159-.04.239-.04.159-.04.358-.081.517-.121.08-.04.2-.04.279-.08.16-.04.318-.12.477-.161.08-.04.2-.08.28-.08.238-.08.437-.16.676-.281.12-.04.239-.12.358-.16.12-.04.24-.121.359-.161s.238-.12.358-.201c.12-.08.239-.12.358-.2.12-.04.2-.121.319-.161.159-.08.278-.16.437-.281.08-.04.12-.08.2-.12 1.353-.924 2.587-2.128 3.622-3.532.916-1.525.557-3.733-.995-4.897"/><path fill="#74CBE0" d="M14.73 20.264c2.22 0 4.02-1.815 4.02-4.053s-1.8-4.054-4.02-4.054c-2.221 0-4.021 1.815-4.021 4.054 0 2.238 1.8 4.053 4.02 4.053"/><path fill="url(#d)" d="m40.207 12.84-6.569 17.297h-3.662l2.19-5.297-4.778-12h3.941l2.707 8.548 2.468-8.549z"/><path fill="url(#e)" d="M53.304 16.652v3.973c0 1.646-.478 2.81-1.473 3.492s-2.548 1.043-4.738 1.043q-3.462 0-4.777-1.083c-.875-.723-1.313-1.886-1.313-3.452V7.421h3.622v6.582c.2-.562.597-.923 1.194-1.123.598-.201 1.473-.322 2.707-.322q1.552 0 2.508.241c.637.16 1.115.442 1.473.803.319.361.558.803.637 1.244.12.482.16 1.084.16 1.806m-3.623 4.455v-4.455c0-.803-.16-1.284-.438-1.485-.279-.2-.995-.32-2.15-.32-1.035 0-1.711.12-1.99.4-.319.281-.478.723-.478 1.405v4.455q0 1.083.478 1.445.477.36 2.03.361c1.075 0 1.752-.12 2.07-.361q.478-.362.478-1.445"/><path fill="url(#f)" d="M66.201 19.863H58.44v1.084c0 .682.239 1.163.716 1.484.478.322 1.394.482 2.707.482 1.194 0 2.548-.16 4.02-.522v2.328a22.8 22.8 0 0 1-4.697.482c-4.259 0-6.369-1.325-6.369-3.933v-4.375c0-1.565.478-2.649 1.473-3.331s2.468-1.003 4.419-1.003c1.831 0 3.224.32 4.14.963.915.642 1.353 1.766 1.353 3.371zm-3.423-2.087V16.01c0-.401-.16-.682-.478-.883s-.836-.321-1.632-.321c-.876 0-1.473.12-1.791.321a1.01 1.01 0 0 0-.478.883v1.766z"/><path fill="url(#g)" d="M75.875 15.609H74.64c-.995 0-1.752.16-2.23.481-.517.321-.756.843-.756 1.606v7.264h-3.622V12.84h3.463v2.127c0-.603.358-1.164 1.035-1.646s1.353-.722 2.11-.722h1.274v3.01z"/><path fill="url(#h)" d="M94.067 19.22v1.084c0 .963-.159 1.766-.517 2.449-.358.642-.876 1.163-1.553 1.484a7 7 0 0 1-2.229.723c-.796.16-1.752.2-2.866.2-1.553 0-3.424-.16-5.693-.441v-2.97c2.747.442 4.658.642 5.733.642q3.225 0 3.224-1.685v-1.044c0-.481-.16-.883-.438-1.204q-.418-.48-1.672-.481h-1.87c-3.544 0-5.295-1.405-5.295-4.255v-1.204c0-1.404.597-2.448 1.751-3.13 1.155-.682 3.026-1.003 5.574-1.003 1.234 0 2.906.12 5.015.32v2.89c-2.508-.28-4.22-.441-5.135-.441-1.274 0-2.15.12-2.627.32-.478.202-.717.603-.717 1.085v1.163c0 .843.717 1.285 2.15 1.285h1.95c1.871 0 3.225.36 4.021 1.043.756.803 1.194 1.806 1.194 3.17"/><path fill="url(#i)" d="M106.647 19.863h-7.763v1.084c0 .682.239 1.163.717 1.484.477.322 1.393.482 2.707.482 1.194 0 2.547-.16 4.02-.522v2.328a22.8 22.8 0 0 1-4.697.482c-4.26 0-6.37-1.325-6.37-3.933v-4.375c0-1.565.478-2.649 1.474-3.331.995-.682 2.468-1.003 4.418-1.003 1.831 0 3.225.32 4.14.963.916.642 1.354 1.766 1.354 3.371zm-3.424-2.087V16.01c0-.401-.159-.682-.477-.883-.319-.2-.836-.321-1.633-.321-.875 0-1.472.12-1.79.321-.32.2-.479.522-.479.883v1.766z"/><path fill="url(#j)" d="M119.505 19.863h-7.763v1.084c0 .682.239 1.163.717 1.484.478.322 1.393.482 2.707.482 1.194 0 2.548-.16 4.021-.522v2.328a22.8 22.8 0 0 1-4.698.482c-4.259 0-6.369-1.325-6.369-3.933v-4.375c0-1.565.477-2.649 1.473-3.331.995-.682 2.468-1.003 4.418-1.003 1.832 0 3.225.32 4.14.963.916.642 1.354 1.766 1.354 3.371zm-3.424-2.087V16.01c0-.401-.159-.682-.477-.883-.319-.2-.836-.321-1.632-.321-.876 0-1.473.12-1.792.321a1.01 1.01 0 0 0-.477.883v1.766z"/><path fill="url(#k)" d="M124.441 24.92h-3.622V7.42h3.622zm8.559 0h-4.1l-4.339-6.783 3.941-5.298h4.14l-4.18 5.258z"/><defs><linearGradient id="a" x1="1.56" x2="59.004" y1="31.679" y2="31.679" gradientUnits="userSpaceOnUse"><stop stop-color="#71CADF"/><stop offset="1" stop-color="#3D489E"/></linearGradient><linearGradient id="b" x1="-8.901" x2="34.441" y1="16.001" y2="16.001" gradientUnits="userSpaceOnUse"><stop stop-color="#74CBE0"/><stop offset="1" stop-color="#3B499F"/></linearGradient><linearGradient id="c" x1="35.73" x2="-10.99" y1="25.176" y2="25.176" gradientUnits="userSpaceOnUse"><stop stop-color="#74CBE0"/><stop offset="1" stop-color="#3B499E"/></linearGradient><linearGradient id="d" x1="27.37" x2="133.014" y1="21.482" y2="21.482" gradientUnits="userSpaceOnUse"><stop stop-color="#74CBE0"/><stop offset="1" stop-color="#3B499E"/></linearGradient><linearGradient id="e" x1="27.37" x2="133.014" y1="16.31" y2="16.31" gradientUnits="userSpaceOnUse"><stop stop-color="#74CBE0"/><stop offset="1" stop-color="#3B499E"/></linearGradient><linearGradient id="f" x1="27.37" x2="133.014" y1="18.884" y2="18.884" gradientUnits="userSpaceOnUse"><stop stop-color="#74CBE0"/><stop offset="1" stop-color="#3B499E"/></linearGradient><linearGradient id="g" x1="27.37" x2="133.014" y1="18.759" y2="18.759" gradientUnits="userSpaceOnUse"><stop stop-color="#74CBE0"/><stop offset="1" stop-color="#3B499E"/></linearGradient><linearGradient id="h" x1="27.37" x2="133.014" y1="16.823" y2="16.823" gradientUnits="userSpaceOnUse"><stop stop-color="#74CBE0"/><stop offset="1" stop-color="#3B499E"/></linearGradient><linearGradient id="i" x1="27.37" x2="133.014" y1="18.884" y2="18.884" gradientUnits="userSpaceOnUse"><stop stop-color="#74CBE0"/><stop offset="1" stop-color="#3B499E"/></linearGradient><linearGradient id="j" x1="27.37" x2="133.014" y1="18.884" y2="18.884" gradientUnits="userSpaceOnUse"><stop stop-color="#74CBE0"/><stop offset="1" stop-color="#3B499E"/></linearGradient><linearGradient id="k" x1="27.37" x2="133.014" y1="16.185" y2="16.185" gradientUnits="userSpaceOnUse"><stop stop-color="#74CBE0"/><stop offset="1" stop-color="#3B499E"/></linearGradient></defs></svg>