<svg xmlns="http://www.w3.org/2000/svg" xml:space="preserve" id="Layer_1" x="0" y="0" version="1.1" viewBox="-247 358.9 100 68.6"><style>.st0{fill:#37474f}</style><path d="M-212.9 421.4c-1.5 0-3.1-.6-4.2-1.8l-24.1-24.1c-2.3-2.3-2.3-6.1 0-8.5l24.1-24.1c2.3-2.3 6.1-2.3 8.5 0 2.3 2.3 2.3 6.1 0 8.5l-19.8 19.8 19.8 19.8c2.3 2.3 2.3 6.1 0 8.5-1.3 1.3-2.8 1.9-4.3 1.9M-181.1 421.4c-1.5 0-3.1-.6-4.2-1.8-2.3-2.3-2.3-6.1 0-8.5l19.8-19.8-19.8-19.8c-2.3-2.3-2.3-6.1 0-8.5 2.3-2.3 6.1-2.3 8.5 0l24.1 24.1c2.3 2.3 2.3 6.1 0 8.5l-24.1 24.1c-1.2 1.1-2.7 1.7-4.3 1.7" class="st0"/></svg>