<svg xmlns="http://www.w3.org/2000/svg" viewBox="0 0 20 20"><path d="M17.316 6.246q.011.244.01.488c0 4.99-3.796 10.742-10.74 10.742-2.132 0-4.115-.625-5.786-1.697q.444.05.9.05c1.77 0 3.397-.603 4.688-1.614a3.78 3.78 0 0 1-3.526-2.62q.345.064.71.065c.345 0 .68-.044.995-.13A3.78 3.78 0 0 1 1.54 7.828V7.78c.508.284 1.09.454 1.71.474a3.77 3.77 0 0 1-1.68-3.143c0-.69.185-1.34.51-1.896a10.73 10.73 0 0 0 7.783 3.943 3.774 3.774 0 0 1 3.677-4.634c1.085 0 2.066.457 2.755 1.19a7.6 7.6 0 0 0 2.397-.915 3.78 3.78 0 0 1-1.66 2.086 7.6 7.6 0 0 0 2.168-.594 7.6 7.6 0 0 1-1.884 1.953z"/></svg>