<svg xmlns="http://www.w3.org/2000/svg" width="224.591" height="47.596"><g data-name="Group 13101"><path fill="#39c1f1" d="M183.883 23.095v-5.274h-14.174a5.4 5.4 0 0 0-4.065 1.7 5.6 5.6 0 0 0-1.7 4.065v5.988a5.48 5.48 0 0 0 1.7 4.065 5.4 5.4 0 0 0 4.065 1.7h7.032a1.9 1.9 0 0 1 1.373.549 1.82 1.82 0 0 1 .549 1.373v3.96l2.472 1.264h-17.14v5.109h14.119a5.4 5.4 0 0 0 4.065-1.7 5.48 5.48 0 0 0 1.7-4.065v-6.043a5.48 5.48 0 0 0-1.7-4.065 5.4 5.4 0 0 0-4.065-1.7h-7.032a1.877 1.877 0 0 1-1.923-1.923v-5ZM207.011 28.424a1.1 1.1 0 0 1 .385-.879 1.43 1.43 0 0 1 .934-.385h4.889v-3.406h-5.768a5.066 5.066 0 0 0-5 5v18.678h4.615V36.939h5.274v-3.626h-7.032l1.813-.879v-4.01ZM220.91 43.696a1.5 1.5 0 0 1-1.044-.44 1.4 1.4 0 0 1-.439-1.044v-7.748h4.34v-3.955h-4.339v-6.645h-5v17.964a5.1 5.1 0 0 0 1.593 3.846 4.99 4.99 0 0 0 3.791 1.593h4.78v-3.681h-3.681ZM196.078 30.731h-5.768a4.29 4.29 0 0 0-4.285 4.285v8.241a4.29 4.29 0 0 0 4.285 4.285h5.768a4.29 4.29 0 0 0 4.285-4.285v-8.241a4.29 4.29 0 0 0-4.285-4.285m.385 12.526a.413.413 0 0 1-.385.385h-7.8l1.593-.824v-7.8a.376.376 0 0 1 .385-.385h5.823a.376.376 0 0 1 .385.385Z"/><g fill="#183560"><path d="M107.456 29.248h-12.69l.055-3.186a2.34 2.34 0 0 1 .385-1.319 4 4 0 0 1 .494-.494 1.25 1.25 0 0 1 .714-.165h10.877l-.055-6.208H95.205a17.4 17.4 0 0 0-3.022.22 4.57 4.57 0 0 0-2.362 1.154 4.7 4.7 0 0 0-1.373 2.472 16 16 0 0 0-.275 2.967v15.822c0 .6 0 1.209.055 1.758a11 11 0 0 0 .275 1.538 4.7 4.7 0 0 0 .714 1.373 4.9 4.9 0 0 0 1.209 1.154 6.7 6.7 0 0 0 1.593.879 7.5 7.5 0 0 0 1.593.33 16 16 0 0 0 1.648.055c.549-.055 1.154-.055 1.813-.055h10.273v-6.428h-10a6.3 6.3 0 0 0-1.044.055 1.35 1.35 0 0 1-.879-.33 1.54 1.54 0 0 1-.659-1.264l-.055-3.516h12.69v-6.812ZM20.931 21.886a4.55 4.55 0 0 0-1.483-2.582 5 5 0 0 0-2.2-1.319 11.4 11.4 0 0 0-2.527-.22H7.307c-.6 0-1.154 0-1.7.055a7 7 0 0 0-1.538.22 5.1 5.1 0 0 0-1.428.549 4.4 4.4 0 0 0-1.209 1.044 6.1 6.1 0 0 0-.879 1.318 13 13 0 0 0-.443 1.375A6.8 6.8 0 0 0 0 23.809v23.733h6.592v-22.03a.8.8 0 0 1 .055-.384 3 3 0 0 1 .22-.385 1.2 1.2 0 0 1 .989-.44h5.109a3.4 3.4 0 0 1 .769.055 1.04 1.04 0 0 1 .6.385 1.4 1.4 0 0 1 .33.934v5.109h-5.27v6.537h5.274v10.218h6.537V25.292a13.2 13.2 0 0 0-.274-3.406M46.696 21.227a6.8 6.8 0 0 0-1.538-2.143 5.1 5.1 0 0 0-2.088-1.1 10.7 10.7 0 0 0-2.417-.22h-15v29.721h14.725a13.6 13.6 0 0 0 3.131-.385 5.08 5.08 0 0 0 2.472-1.813 5.2 5.2 0 0 0 .879-1.593 5.7 5.7 0 0 0 .275-1.813V23.866a7.3 7.3 0 0 0-.439-2.639m-6.318 18.4a1.08 1.08 0 0 1-.494.934 2.2 2.2 0 0 1-.6.33 3 3 0 0 1-.714.055h-6.378V24.358L29.5 21.336l2.362 1.209 3.626 1.648h3.131a2 2 0 0 1 1.318.439 1.5 1.5 0 0 1 .494 1.154V39.63ZM71.967 21.227a6 6 0 0 0-1.538-2.143 5.5 5.5 0 0 0-2.088-1.1 10.7 10.7 0 0 0-2.417-.22h-15v29.721h14.723a13.6 13.6 0 0 0 3.131-.385 4.85 4.85 0 0 0 2.472-1.813 5.2 5.2 0 0 0 .879-1.593 5.7 5.7 0 0 0 .275-1.813V23.866a6.3 6.3 0 0 0-.437-2.639m-6.263 18.4a1.08 1.08 0 0 1-.494.934 1.3 1.3 0 0 1-.6.33 3.4 3.4 0 0 1-.769.055h-6.378V24.358l-2.637-3.021 2.362 1.209 3.626 1.648h3.131a1.96 1.96 0 0 1 1.264.439 1.5 1.5 0 0 1 .494 1.154ZM77.241 17.766h6.373v29.721h-6.373z"/></g><g transform="translate(110.542)"><path fill="#537ebf" d="M31.413 5.046a9.4 9.4 0 0 0-.494-1.648 5.5 5.5 0 0 0-.439-.769 5.54 5.54 0 0 0-2.2-1.7A9.74 9.74 0 0 0 21.468.38a19 19 0 0 0-5.6 3.186c-1.7 1.264-3.351 2.472-5.054 3.736L8.342 9.115a17 17 0 0 0-2.472 1.868c.934.165 2.033.055 2.967.22a28 28 0 0 1 3.076.659 49 49 0 0 1 5.988 2.143c4.45 1.758 8.9 3.516 13.35 5.219.162-4.674 1.206-9.508.162-14.178m-12.69 2.033a.5.5 0 0 1 .385.165L20.372 6.2a.4.4 0 0 1-.055-.22.659.659 0 1 1 1.318 0v.165l1.1.659a.62.62 0 0 1 .439-.165.8.8 0 0 1 .33.11l1.318-1.264a.8.8 0 0 1-.11-.33.67.67 0 0 1 .659-.659.659.659 0 1 1 0 1.318.8.8 0 0 1-.33-.11l-1.318 1.263a.8.8 0 0 1 .11.33.67.67 0 0 1-.659.659.635.635 0 0 1-.659-.659v-.165l-1.1-.659a.67.67 0 0 1-.494.165.5.5 0 0 1-.385-.165l-1.264.989a.5.5 0 0 1 .055.275.659.659 0 1 1-1.318 0 .717.717 0 0 1 .714-.658m.934 5.549h-1.758V9.442h1.7v3.186Zm2.2 0h-1.758v-5h1.758Zm2.2 0h-1.758V8.947h1.758Zm2.2 0h-1.758V6.75h1.758Z"/><path fill="#43bead" d="M16.471 39.905a.439.439 0 1 1-.439-.439.433.433 0 0 1 .439.439"/><path fill="#43bead" d="M17.679 39.52a.82.82 0 0 1-.494-.934.5.5 0 0 0-.165-.385.6.6 0 0 0-.44 0 .93.93 0 0 1-.549.165.77.77 0 0 1-.494-.165.33.33 0 0 0-.22-.055.2.2 0 0 0-.165.055c-.165.11-.22.22-.165.385a.92.92 0 0 1-.494.934.3.3 0 0 0-.22.33.37.37 0 0 0 .22.33.816.816 0 0 1 .494.934.5.5 0 0 0 .165.385c.165.11.275.055.44 0a.91.91 0 0 1 1.044 0 .33.33 0 0 0 .44 0 .284.284 0 0 0 .165-.385.92.92 0 0 1 .494-.934.3.3 0 0 0 .22-.33.73.73 0 0 0-.276-.33m-1.648 1.154a.845.845 0 0 1-.824-.824.81.81 0 0 1 .824-.824.826.826 0 0 1 0 1.648"/><path fill="#43bead" d="M31.193 47.376c-3.571-2.362-5.823-6.263-8.076-9.889-2.417-3.9-5-7.746-7.526-11.592-1.593 2.142-3.461 4.065-5.109 6.153a21.6 21.6 0 0 0-3.9 6.922 5.8 5.8 0 0 0-.33 2.143c.165 2.088 2.2 4.01 3.9 5.054 1.923 1.209 4.34 1.373 6.592 1.373h1.1c4.56 0 9.119-.055 13.679-.055a.47.47 0 0 1-.33-.109m-19.5-7.416a4.327 4.327 0 0 1 4.34-4.395 5 5 0 0 1 .934.11.3.3 0 0 1 .22.33.23.23 0 0 1-.33.165 4.2 4.2 0 0 0-.824-.11 3.857 3.857 0 0 0-3.846 3.845.26.26 0 0 1-.275.275.236.236 0 0 1-.221-.22Zm6.537 3.681a4.4 4.4 0 0 1-2.2.6 4.25 4.25 0 0 1-4.12-3.021.23.23 0 0 1 .165-.33.267.267 0 0 1 .33.165 3.84 3.84 0 0 0 3.681 2.692 3.4 3.4 0 0 0 1.923-.549.22.22 0 0 1 .33.11.264.264 0 0 1-.111.332Zm-.33-2.912a.37.37 0 0 0-.22.385.86.86 0 0 1-.439.824.93.93 0 0 1-.989-.055.334.334 0 0 0-.439 0 .93.93 0 0 1-.549.165 1.3 1.3 0 0 1-.44-.11.775.775 0 0 1-.439-.824.37.37 0 0 0-.22-.385.934.934 0 0 1 0-1.648.37.37 0 0 0 .22-.385.89.89 0 0 1 .439-.879.92.92 0 0 1 .989.055.334.334 0 0 0 .439 0 .83.83 0 0 1 .934-.055.81.81 0 0 1 .439.879.37.37 0 0 0 .22.385.85.85 0 0 1 .494.824.775.775 0 0 1-.44.824Zm1.373 2.088c-.055.055-.11.11-.165.11a.2.2 0 0 1-.165-.055.206.206 0 0 1 0-.33 3.8 3.8 0 0 0 .989-2.582 4 4 0 0 0-1.923-3.351.246.246 0 1 1 .22-.44 4.3 4.3 0 0 1 2.2 3.791 4.57 4.57 0 0 1-1.157 2.856Z"/><path fill="#39c1f1" d="M38.72 34.522h-8.515a.175.175 0 0 0-.165.165v.659h8.9v-.659c-.055-.055-.111-.165-.22-.165m-2.033.659a.146.146 0 0 1-.165-.165.165.165 0 1 1 .33 0 .146.146 0 0 1-.165.161Zm.659 0a.146.146 0 0 1-.165-.165.165.165 0 0 1 .33 0c.055.11-.055.161-.165.161Zm.714 0a.146.146 0 0 1-.165-.165.165.165 0 0 1 .33 0 .146.146 0 0 1-.164.161Zm-8.076.6v5.384a.175.175 0 0 0 .165.165h8.515a.175.175 0 0 0 .165-.165v-5.384Zm3.131 3.9a.266.266 0 0 1 0 .385.275.275 0 0 1-.33 0l-1.373-1.373a.42.42 0 0 1-.11-.275.28.28 0 0 1 .11-.22l1.373-1.373a.272.272 0 0 1 .385.385l-1.264 1.209Zm2.2-2.582-1.209 2.967a.3.3 0 0 1-.22.165h-.11a.39.39 0 0 1-.165-.33l1.209-2.967a.39.39 0 0 1 .33-.165c.164.008.219.17.164.335Zm2.307 1.648-1.373 1.373a.275.275 0 0 1-.33 0 .265.265 0 0 1 0-.385l1.209-1.209-1.209-1.209a.272.272 0 1 1 .385-.385l1.373 1.373a.4.4 0 0 1 .11.22c-.058.062-.058.117-.166.227Zm-7.636-2.967v5.384a.175.175 0 0 0 .165.165h8.515a.175.175 0 0 0 .165-.165V35.78Zm3.131 3.9a.266.266 0 0 1 0 .385.275.275 0 0 1-.33 0l-1.373-1.373a.42.42 0 0 1-.11-.275.28.28 0 0 1 .11-.22l1.373-1.373a.272.272 0 0 1 .385.385l-1.264 1.209Zm2.2-2.582-1.209 2.967a.3.3 0 0 1-.22.165h-.11a.39.39 0 0 1-.165-.33l1.209-2.967a.39.39 0 0 1 .33-.165c.162.009.217.171.162.336Zm2.307 1.648-1.373 1.373a.275.275 0 0 1-.33 0 .265.265 0 0 1 0-.385l1.209-1.209-1.209-1.209a.272.272 0 1 1 .385-.385l1.373 1.373a.4.4 0 0 1 .11.22c-.06.063-.06.118-.168.228Zm1.1-4.23h-8.515a.175.175 0 0 0-.165.165v.659h8.9v-.659c-.059-.049-.115-.159-.224-.159Zm-2.033.659a.146.146 0 0 1-.165-.165.165.165 0 1 1 .33 0 .146.146 0 0 1-.169.167Zm.659 0a.146.146 0 0 1-.165-.165.165.165 0 0 1 .33 0c.051.116-.059.167-.169.167Zm.714 0a.146.146 0 0 1-.165-.165.165.165 0 0 1 .33 0 .146.146 0 0 1-.168.167Zm.659-.659h-8.515a.175.175 0 0 0-.165.165v.659h8.9v-.659c-.058-.049-.114-.159-.223-.159Zm-2.033.659a.146.146 0 0 1-.165-.165.165.165 0 1 1 .33 0 .146.146 0 0 1-.168.167Zm.659 0a.146.146 0 0 1-.165-.165.165.165 0 0 1 .33 0c.052.116-.058.167-.168.167Zm.714 0a.146.146 0 0 1-.165-.165.165.165 0 0 1 .33 0 .146.146 0 0 1-.167.167Zm-8.076.6v5.384a.175.175 0 0 0 .165.165h8.515a.175.175 0 0 0 .165-.165v-5.384Zm3.131 3.9a.266.266 0 0 1 0 .385.275.275 0 0 1-.33 0l-1.373-1.373a.42.42 0 0 1-.11-.275.28.28 0 0 1 .11-.22l1.373-1.373a.272.272 0 0 1 .385.385l-1.264 1.209Zm2.2-2.582-1.209 2.967a.3.3 0 0 1-.22.165h-.11a.39.39 0 0 1-.165-.33l1.209-2.967a.39.39 0 0 1 .33-.165c.161.014.216.176.161.341Zm2.307 1.648-1.373 1.373a.275.275 0 0 1-.33 0 .265.265 0 0 1 0-.385l1.209-1.209-1.209-1.209a.272.272 0 1 1 .385-.385l1.373 1.373a.4.4 0 0 1 .11.22c-.061.068-.061.123-.169.233Zm-7.636-2.967v5.384a.175.175 0 0 0 .165.165h8.515a.175.175 0 0 0 .165-.165v-5.384Zm3.131 3.9a.266.266 0 0 1 0 .385.275.275 0 0 1-.33 0l-1.373-1.373a.42.42 0 0 1-.11-.275.28.28 0 0 1 .11-.22l1.373-1.373a.272.272 0 0 1 .385.385l-1.264 1.209Zm2.2-2.582-1.209 2.967a.3.3 0 0 1-.22.165h-.11a.39.39 0 0 1-.165-.33l1.209-2.967a.39.39 0 0 1 .33-.165c.159.015.214.177.159.342Zm2.307 1.648-1.373 1.373a.275.275 0 0 1-.33 0 .265.265 0 0 1 0-.385l1.209-1.209-1.209-1.209a.272.272 0 1 1 .385-.385l1.373 1.373a.4.4 0 0 1 .11.22c-.063.069-.063.124-.171.234Zm1.1-4.23h-8.515a.175.175 0 0 0-.165.165v.659h8.9v-.659c-.062-.043-.118-.153-.227-.153Zm-2.033.659a.146.146 0 0 1-.165-.165.165.165 0 1 1 .33 0 .146.146 0 0 1-.172.173Zm.659 0a.146.146 0 0 1-.165-.165.165.165 0 0 1 .33 0c.048.122-.062.173-.172.173Zm.714 0a.146.146 0 0 1-.165-.165.165.165 0 0 1 .33 0 .146.146 0 0 1-.171.173Zm.659-.659h-8.515a.175.175 0 0 0-.165.165v.659h8.9v-.659c-.061-.043-.117-.153-.226-.153Zm-2.033.659a.146.146 0 0 1-.165-.165.165.165 0 1 1 .33 0 .146.146 0 0 1-.171.173Zm.659 0a.146.146 0 0 1-.165-.165.165.165 0 0 1 .33 0c.049.122-.061.173-.171.173Zm.714 0a.146.146 0 0 1-.165-.165.165.165 0 0 1 .33 0 .146.146 0 0 1-.17.173Zm-8.076.6v5.384a.175.175 0 0 0 .165.165h8.515a.175.175 0 0 0 .165-.165v-5.384Zm3.131 3.9a.266.266 0 0 1 0 .385.275.275 0 0 1-.33 0l-1.373-1.373a.42.42 0 0 1-.11-.275.28.28 0 0 1 .11-.22l1.373-1.373a.272.272 0 0 1 .385.385l-1.264 1.209Zm2.2-2.582-1.209 2.967a.3.3 0 0 1-.22.165h-.11a.39.39 0 0 1-.165-.33l1.209-2.967a.39.39 0 0 1 .33-.165c.158.02.213.182.158.347Zm2.307 1.648-1.373 1.373a.275.275 0 0 1-.33 0 .265.265 0 0 1 0-.385l1.209-1.209-1.209-1.209a.272.272 0 1 1 .385-.385l1.373 1.373a.4.4 0 0 1 .11.22c-.064.074-.064.129-.172.239Zm-7.636-2.967v5.384a.175.175 0 0 0 .165.165h8.515a.175.175 0 0 0 .165-.165v-5.384Zm3.131 3.9a.266.266 0 0 1 0 .385.275.275 0 0 1-.33 0L31.42 38.68a.42.42 0 0 1-.11-.275.28.28 0 0 1 .11-.22l1.373-1.373a.272.272 0 0 1 .385.385l-1.264 1.209Zm2.2-2.582-1.209 2.967a.3.3 0 0 1-.22.165h-.11a.39.39 0 0 1-.165-.33l1.209-2.967a.39.39 0 0 1 .33-.165c.156.021.211.183.156.348Zm2.307 1.648-1.373 1.373a.275.275 0 0 1-.33 0 .265.265 0 0 1 0-.385l1.209-1.209-1.209-1.209a.272.272 0 1 1 .385-.385l1.373 1.373a.4.4 0 0 1 .11.22c-.066.075-.066.13-.174.24Zm1.1-4.23h-8.515a.175.175 0 0 0-.165.165v.659h8.9v-.659c-.065-.037-.121-.147-.23-.147Zm-2.033.659a.146.146 0 0 1-.165-.165.165.165 0 1 1 .33 0 .146.146 0 0 1-.175.179Zm.659 0a.146.146 0 0 1-.165-.165.165.165 0 0 1 .33 0c.045.128-.065.179-.175.179Zm.714 0a.146.146 0 0 1-.165-.165.165.165 0 0 1 .33 0 .146.146 0 0 1-.174.179Zm.659-.659h-8.515a.175.175 0 0 0-.165.165v.659h8.9v-.659c-.064-.037-.12-.147-.229-.147Zm-2.033.659a.146.146 0 0 1-.165-.165.165.165 0 1 1 .33 0 .146.146 0 0 1-.174.179Zm.659 0a.146.146 0 0 1-.165-.165.165.165 0 0 1 .33 0c.046.128-.064.179-.174.179Zm.714 0a.146.146 0 0 1-.165-.165.165.165 0 0 1 .33 0 .146.146 0 0 1-.173.179Zm-8.076.6v5.384a.175.175 0 0 0 .165.165h8.515a.175.175 0 0 0 .165-.165v-5.384Zm3.131 3.9a.266.266 0 0 1 0 .385.275.275 0 0 1-.33 0l-1.373-1.373a.42.42 0 0 1-.11-.275.28.28 0 0 1 .11-.22l1.373-1.373a.272.272 0 0 1 .385.385l-1.264 1.209Zm2.2-2.582-1.209 2.967a.3.3 0 0 1-.22.165h-.11a.39.39 0 0 1-.165-.33l1.209-2.967a.39.39 0 0 1 .33-.165c.155.026.21.188.155.353Zm2.307 1.648-1.373 1.373a.275.275 0 0 1-.33 0 .265.265 0 0 1 0-.385l1.209-1.209-1.209-1.209a.272.272 0 1 1 .385-.385l1.373 1.373a.4.4 0 0 1 .11.22c-.067.08-.067.135-.175.245Zm-7.636 2.362a.175.175 0 0 0 .165.165h8.515a.175.175 0 0 0 .165-.165v-5.384h-8.845Zm5.933-3.9a.272.272 0 1 1 .385-.385l1.373 1.373a.4.4 0 0 1 .11.22c0 .11-.055.165-.11.275l-1.373 1.373a.275.275 0 0 1-.33 0 .266.266 0 0 1 0-.385l1.209-1.209Zm-1.1-.33a.39.39 0 0 1 .33-.165c.165.055.165.22.165.33l-1.209 2.967a.3.3 0 0 1-.22.165h-.11a.39.39 0 0 1-.165-.33Zm-3.406 1.319 1.373-1.373a.272.272 0 0 1 .385.385l-1.264 1.209 1.264 1.209a.265.265 0 0 1 0 .384.274.274 0 0 1-.33 0l-1.373-1.373a.42.42 0 0 1-.11-.275c-.064.021-.009-.089.046-.143Zm7.307-3.681h-8.515a.175.175 0 0 0-.165.165v.659h8.9v-.659c-.064-.032-.12-.142-.229-.142Zm-2.033.659a.146.146 0 0 1-.165-.165.165.165 0 1 1 .33 0 .146.146 0 0 1-.174.184Zm.659 0a.146.146 0 0 1-.165-.165.165.165 0 0 1 .33 0c.046.133-.064.184-.174.184Zm.714 0a.146.146 0 0 1-.165-.165.165.165 0 0 1 .33 0 .146.146 0 0 1-.173.184Zm1.648-5.988c-2.307.549-5.219 1.318-8.021 2.088v.055l-4.175 1.154c-2.8.769-4.944 1.373-5.384 1.538 1.538 2.362 3.131 4.834 4.34 6.812a11.6 11.6 0 0 0 .989 1.483 19 19 0 0 0 1.318 1.648 21 21 0 0 0 1.538 1.593 7.6 7.6 0 0 0 1.7 1.264 4.9 4.9 0 0 0 1.758.659 5.17 5.17 0 0 0 2.692-.439 10.6 10.6 0 0 0 2.088-1.044 9.3 9.3 0 0 0 1.758-1.538 9.2 9.2 0 0 0 1.318-1.923 5.6 5.6 0 0 0 .6-1.483l5-15.382a23 23 0 0 1-7.527 3.538Zm-.33 11.921a.635.635 0 0 1-.659.659h-8.515a.635.635 0 0 1-.659-.659v-6.404a.67.67 0 0 1 .659-.659h8.515a.67.67 0 0 1 .659.659Zm-9.394 0a.175.175 0 0 0 .165.165h8.515a.175.175 0 0 0 .165-.165v-5.384h-8.845Zm5.933-3.9a.272.272 0 1 1 .385-.385l1.373 1.373a.4.4 0 0 1 .11.22c0 .11-.055.165-.11.275l-1.373 1.373a.275.275 0 0 1-.33 0 .266.266 0 0 1 0-.385l1.209-1.209Zm-1.1-.33a.39.39 0 0 1 .33-.165c.165.055.165.22.165.33l-1.209 2.967a.3.3 0 0 1-.22.165h-.11a.39.39 0 0 1-.165-.33ZM31.42 38.18l1.373-1.373a.272.272 0 0 1 .385.385l-1.264 1.209 1.264 1.209a.265.265 0 0 1 0 .384.274.274 0 0 1-.33 0l-1.373-1.373a.42.42 0 0 1-.11-.275c-.062.021-.007-.089.048-.143Zm7.307-3.681h-8.515a.175.175 0 0 0-.165.165v.659h8.9v-.659c-.062-.032-.118-.142-.227-.142Zm-2.033.659a.146.146 0 0 1-.165-.165.165.165 0 1 1 .33 0 .146.146 0 0 1-.172.184Zm.659 0a.146.146 0 0 1-.165-.165.165.165 0 0 1 .33 0c.048.133-.062.184-.172.184Zm.714 0a.146.146 0 0 1-.165-.165.165.165 0 0 1 .33 0 .146.146 0 0 1-.171.184Zm.659-.659h-8.515a.175.175 0 0 0-.165.165v.659h8.9v-.659c-.061-.032-.117-.142-.226-.142Zm-2.033.659a.146.146 0 0 1-.165-.165.165.165 0 1 1 .33 0 .146.146 0 0 1-.171.184Zm.659 0a.146.146 0 0 1-.165-.165.165.165 0 0 1 .33 0c.049.133-.061.184-.171.184Zm.714 0a.146.146 0 0 1-.165-.165.165.165 0 0 1 .33 0 .146.146 0 0 1-.17.184Zm-8.076.6v5.384a.175.175 0 0 0 .165.165h8.515a.175.175 0 0 0 .165-.165v-5.384Zm3.131 3.9a.266.266 0 0 1 0 .385.275.275 0 0 1-.33 0l-1.373-1.373a.42.42 0 0 1-.11-.275.28.28 0 0 1 .11-.22l1.373-1.373a.272.272 0 0 1 .385.385l-1.264 1.209Zm2.2-2.582-1.209 2.967a.3.3 0 0 1-.22.165h-.11a.39.39 0 0 1-.165-.33l1.209-2.967a.39.39 0 0 1 .33-.165c.158.031.213.193.158.358Zm2.307 1.648-1.373 1.373a.275.275 0 0 1-.33 0 .265.265 0 0 1 0-.385l1.209-1.209-1.209-1.209a.272.272 0 1 1 .385-.385l1.373 1.373a.4.4 0 0 1 .11.22c-.064.085-.064.14-.172.25Zm-7.636-2.967v5.384a.175.175 0 0 0 .165.165h8.515a.175.175 0 0 0 .165-.165v-5.384Zm3.131 3.9a.266.266 0 0 1 0 .385.275.275 0 0 1-.33 0l-1.373-1.373a.42.42 0 0 1-.11-.275.28.28 0 0 1 .11-.22l1.373-1.373a.272.272 0 0 1 .385.385l-1.264 1.209Zm2.2-2.582-1.209 2.967a.3.3 0 0 1-.22.165h-.11a.39.39 0 0 1-.165-.33l1.209-2.967a.39.39 0 0 1 .33-.165c.156.032.211.194.156.359Zm2.307 1.648-1.373 1.373a.275.275 0 0 1-.33 0 .265.265 0 0 1 0-.385l1.209-1.209-1.209-1.209a.272.272 0 1 1 .385-.385l1.373 1.373a.4.4 0 0 1 .11.22c-.066.086-.066.141-.174.251Zm1.1-4.23h-8.515a.175.175 0 0 0-.165.165v.659h8.9v-.659c-.065-.026-.121-.136-.23-.136Zm-2.033.659a.146.146 0 0 1-.165-.165.165.165 0 1 1 .33 0 .146.146 0 0 1-.175.19Zm.659 0a.146.146 0 0 1-.165-.165.165.165 0 0 1 .33 0c.045.139-.065.19-.175.19Zm.714 0a.146.146 0 0 1-.165-.165.165.165 0 0 1 .33 0 .146.146 0 0 1-.174.19Zm.659-.659h-8.515a.175.175 0 0 0-.165.165v.659h8.9v-.659c-.064-.026-.12-.136-.229-.136Zm-2.033.659a.146.146 0 0 1-.165-.165.165.165 0 1 1 .33 0 .146.146 0 0 1-.174.19Zm.659 0a.146.146 0 0 1-.165-.165.165.165 0 0 1 .33 0c.046.139-.064.19-.174.19Zm.714 0a.146.146 0 0 1-.165-.165.165.165 0 0 1 .33 0 .146.146 0 0 1-.173.19Zm-8.076.6v5.384a.175.175 0 0 0 .165.165h8.515a.175.175 0 0 0 .165-.165v-5.384Zm3.131 3.9a.266.266 0 0 1 0 .385.275.275 0 0 1-.33 0l-1.373-1.373a.42.42 0 0 1-.11-.275.28.28 0 0 1 .11-.22l1.373-1.373a.272.272 0 0 1 .385.385l-1.264 1.209Zm2.2-2.582-1.209 2.967a.3.3 0 0 1-.22.165h-.11a.39.39 0 0 1-.165-.33l1.209-2.967a.39.39 0 0 1 .33-.165c.155.037.21.199.155.364Zm2.307 1.648-1.373 1.373a.275.275 0 0 1-.33 0 .265.265 0 0 1 0-.385l1.209-1.209-1.209-1.209a.272.272 0 1 1 .385-.385l1.373 1.373a.4.4 0 0 1 .11.22c-.067.091-.067.146-.175.256Zm-7.636-2.967v5.384a.175.175 0 0 0 .165.165h8.515a.175.175 0 0 0 .165-.165v-5.384Zm3.131 3.9a.266.266 0 0 1 0 .385.275.275 0 0 1-.33 0l-1.373-1.373a.42.42 0 0 1-.11-.275.28.28 0 0 1 .11-.22l1.373-1.373a.272.272 0 0 1 .385.385l-1.264 1.209Zm2.2-2.582-1.209 2.967a.3.3 0 0 1-.22.165h-.11a.39.39 0 0 1-.165-.33l1.209-2.967a.39.39 0 0 1 .33-.165c.153.038.208.2.153.365Zm2.307 1.648L36.26 40.09a.275.275 0 0 1-.33 0 .265.265 0 0 1 0-.385l1.209-1.209-1.209-1.209a.272.272 0 1 1 .385-.385l1.373 1.373a.4.4 0 0 1 .11.22c-.069.092-.069.147-.177.257Zm1.1-4.23h-8.515a.175.175 0 0 0-.165.165v.659h8.9v-.659c-.068-.02-.124-.13-.233-.13Zm-2.033.659a.146.146 0 0 1-.165-.165.165.165 0 1 1 .33 0 .146.146 0 0 1-.178.196Zm.659 0a.146.146 0 0 1-.165-.165.165.165 0 0 1 .33 0c.042.145-.068.196-.178.196Zm.714 0a.146.146 0 0 1-.165-.165.165.165 0 0 1 .33 0 .146.146 0 0 1-.177.196Zm.659-.659h-8.515a.175.175 0 0 0-.165.165v.659h8.9v-.659c-.067-.02-.123-.13-.232-.13Zm-2.033.659a.146.146 0 0 1-.165-.165.165.165 0 1 1 .33 0 .146.146 0 0 1-.177.196Zm.659 0a.146.146 0 0 1-.165-.165.165.165 0 0 1 .33 0c.043.145-.067.196-.177.196Zm.714 0a.146.146 0 0 1-.165-.165.165.165 0 0 1 .33 0 .146.146 0 0 1-.176.196Zm-8.076.6v5.384a.175.175 0 0 0 .165.165h8.515a.175.175 0 0 0 .165-.165v-5.384Zm3.131 3.9a.266.266 0 0 1 0 .385.275.275 0 0 1-.33 0l-1.373-1.373a.42.42 0 0 1-.11-.275.28.28 0 0 1 .11-.22l1.373-1.373a.272.272 0 0 1 .385.385l-1.264 1.209Zm2.2-2.582-1.209 2.967a.3.3 0 0 1-.22.165h-.11a.39.39 0 0 1-.165-.33l1.209-2.967a.39.39 0 0 1 .33-.165c.152.043.207.205.152.37Zm2.307 1.648-1.373 1.373a.275.275 0 0 1-.33 0 .265.265 0 0 1 0-.385l1.209-1.209-1.209-1.209a.272.272 0 1 1 .385-.385l1.373 1.373a.4.4 0 0 1 .11.22c-.07.097-.07.152-.178.262Zm-7.636-2.967v5.384a.175.175 0 0 0 .165.165h8.515a.175.175 0 0 0 .165-.165v-5.384Zm3.131 3.9a.266.266 0 0 1 0 .385.275.275 0 0 1-.33 0l-1.373-1.373a.42.42 0 0 1-.11-.275.28.28 0 0 1 .11-.22l1.373-1.373a.272.272 0 0 1 .385.385l-1.264 1.209Zm2.2-2.582L34.12 40.03a.3.3 0 0 1-.22.165h-.11a.39.39 0 0 1-.165-.33l1.209-2.967a.39.39 0 0 1 .33-.165c.15.044.205.206.15.371Zm2.307 1.648-1.373 1.373a.275.275 0 0 1-.33 0 .265.265 0 0 1 0-.385l1.209-1.209-1.209-1.209a.272.272 0 1 1 .385-.385l1.373 1.373a.4.4 0 0 1 .11.22c-.072.098-.072.153-.18.263Zm1.1-4.23h-8.515a.175.175 0 0 0-.165.165v.659h8.9v-.659c-.071-.014-.127-.124-.236-.124Zm-2.033.659a.146.146 0 0 1-.165-.165.165.165 0 1 1 .33 0 .146.146 0 0 1-.181.202Zm.659 0a.146.146 0 0 1-.165-.165.165.165 0 0 1 .33 0c.039.151-.071.202-.181.202Zm.714 0a.146.146 0 0 1-.165-.165.165.165 0 0 1 .33 0 .146.146 0 0 1-.18.202Zm.659-.659H30.22a.175.175 0 0 0-.165.165v.659h8.9v-.659c-.07-.014-.126-.124-.235-.124Zm-2.033.659a.146.146 0 0 1-.165-.165.165.165 0 1 1 .33 0 .146.146 0 0 1-.18.202Zm.659 0a.146.146 0 0 1-.165-.165.165.165 0 0 1 .33 0c.04.151-.07.202-.18.202Zm.714 0a.146.146 0 0 1-.165-.165.165.165 0 0 1 .33 0 .146.146 0 0 1-.179.202Zm-8.076.6v5.384a.175.175 0 0 0 .165.165h8.515a.175.175 0 0 0 .165-.165V35.74Zm3.131 3.9a.266.266 0 0 1 0 .385.275.275 0 0 1-.33 0l-1.373-1.373a.42.42 0 0 1-.11-.275.28.28 0 0 1 .11-.22l1.373-1.373a.272.272 0 0 1 .385.385l-1.264 1.209Zm2.2-2.582-1.209 2.967a.3.3 0 0 1-.22.165h-.11a.39.39 0 0 1-.165-.33l1.209-2.967a.39.39 0 0 1 .33-.165c.149.049.204.211.149.376Zm2.307 1.648-1.373 1.373a.275.275 0 0 1-.33 0 .265.265 0 0 1 0-.385l1.209-1.209-1.209-1.209a.272.272 0 1 1 .385-.385l1.373 1.373a.4.4 0 0 1 .11.22c-.073.103-.073.158-.181.268Zm-7.636-2.967v5.384a.175.175 0 0 0 .165.165h8.515a.175.175 0 0 0 .165-.165v-5.384Zm3.131 3.9a.266.266 0 0 1 0 .385.275.275 0 0 1-.33 0l-1.373-1.373a.42.42 0 0 1-.11-.275.28.28 0 0 1 .11-.22l1.373-1.373a.272.272 0 0 1 .385.385l-1.264 1.209Zm2.2-2.582-1.209 2.967a.3.3 0 0 1-.22.165h-.11a.39.39 0 0 1-.165-.33l1.209-2.967a.39.39 0 0 1 .33-.165c.147.05.202.212.147.377Zm2.307 1.648-1.373 1.373a.275.275 0 0 1-.33 0 .265.265 0 0 1 0-.385l1.209-1.209-1.209-1.209a.272.272 0 1 1 .385-.385l1.373 1.373a.4.4 0 0 1 .11.22c-.075.104-.075.159-.183.269Zm1.1-4.23h-8.515a.175.175 0 0 0-.165.165v.659h8.9v-.659c-.074-.008-.13-.118-.239-.118Zm-2.033.659a.146.146 0 0 1-.165-.165.165.165 0 1 1 .33 0 .146.146 0 0 1-.184.208Zm.659 0a.146.146 0 0 1-.165-.165.165.165 0 0 1 .33 0c.036.157-.074.208-.184.208Zm.714 0a.146.146 0 0 1-.165-.165.165.165 0 0 1 .33 0 .146.146 0 0 1-.183.208Z"/><path fill="#183560" d="M38.775 23.213h1.318v.494h-1.318zM37.731 24.215h3.351a.22.22 0 1 1 0 .44h-3.351a.236.236 0 0 1-.22-.22.2.2 0 0 1 .22-.22M39.599 19.046a3.2 3.2 0 0 0 .6 1.1v.055a2.7 2.7 0 0 0-.275.879H38.88a2.4 2.4 0 0 0-.275-.879v-.055a2.44 2.44 0 0 0 .6-1.1v.824a.234.234 0 0 0 .165.385.236.236 0 0 0 .22-.22c0-.055 0-.11-.11-.165l.11-.824Z"/><circle cx=".165" cy=".165" r=".165" fill="#183560" transform="translate(37.292 17.755)"/><path fill="#183560" d="M37.731 18.813v.33h-.275a.054.054 0 0 1-.055-.055v-.22c0-.055 0-.055.055-.055ZM39.544 17.755l.055.275c0 .055 0 .055-.055.055h-.275v-.33ZM41.082 19.143l-.055-.275c0-.055 0-.055.055-.055h.22c.055 0 .055 0 .055.055v.22a.054.054 0 0 1-.055.055ZM41.577 17.92a.175.175 0 0 1-.165.165.165.165 0 0 1 0-.33.175.175 0 0 1 .165.165"/><path fill="#183560" d="M36.467 17.273v3.846h2.143a1.5 1.5 0 0 0-.275-.769.33.33 0 0 1 .055-.439 2.6 2.6 0 0 0 .549-.989.28.28 0 0 1 .275-.22h.385a.37.37 0 0 1 .33.22 3.1 3.1 0 0 0 .494.989.43.43 0 0 1 .11.439 4 4 0 0 0-.275.769h2.088v-3.846Zm4.889 1.154a.46.46 0 0 1-.385-.22h-.22c.165.055.275.22.385.33h.165a.354.354 0 0 1 .33.33v.275a.31.31 0 0 1-.33.275h-.275a.36.36 0 0 1-.33-.275v-.275a.2.2 0 0 1 .055-.165 1.83 1.83 0 0 0-.934-.44.3.3 0 0 1-.275.165h-.275a.34.34 0 0 1-.275-.165 1.42 1.42 0 0 0-.879.44v.439a.294.294 0 0 1-.275.275h-.271a.36.36 0 0 1-.33-.275v-.275a.355.355 0 0 1 .33-.33h.165a1.15 1.15 0 0 1 .439-.33h-.22a.37.37 0 0 1-.385.22c-.275 0-.439-.165-.439-.494a.433.433 0 0 1 .439-.439.41.41 0 0 1 .385.275h1.1a.31.31 0 0 1 .33-.275h.275a.26.26 0 0 1 .275.275h1.1c.11-.165.22-.275.385-.275a.47.47 0 0 1 .439.439.58.58 0 0 1-.499.495"/><path fill="#183560" d="M43.334 15.896h-7.856a.55.55 0 0 0-.549.549v5.658a.52.52 0 0 0 .549.549h7.8a.55.55 0 0 0 .549-.549v-5.658a.505.505 0 0 0-.493-.549m-.494 5.658h-6.922V16.72h6.922Z"/><path fill="#183560" d="M46.909 15.373a10.5 10.5 0 0 0-2.582-2.8 22 22 0 0 0-2.143-1.593c-3.351-2.417-6.757-4.834-10.108-7.307 1.264 4.065.769 8.46.439 12.745-.22 2.857-.385 5.713-.549 8.57l-.165 4.285c0 .165-.055.33.055.33s.33-.11.494-.11c.275-.11.549-.165.879-.275.6-.165 1.154-.33 1.758-.44 2.362-.6 4.725-1.154 7.032-1.978a20.7 20.7 0 0 0 3.955-2.033 5.2 5.2 0 0 0 1.868-1.923 5.1 5.1 0 0 0 .439-2.417 10.53 10.53 0 0 0-1.372-5.054m-2.527 6.482a1.08 1.08 0 0 1-1.044 1.044h-2.967v.549h.714a.61.61 0 0 1 .6.6.66.66 0 0 1-.6.659h-3.351a.635.635 0 0 1-.659-.659.624.624 0 0 1 .659-.6h.714v-.549h-2.967a1.043 1.043 0 0 1-1.044-1.044v-5.659a1.043 1.043 0 0 1 1.044-1.044h7.8a1.08 1.08 0 0 1 1.044 1.044v5.659Z"/><path fill="#138589" d="M13.833 13.993a20.3 20.3 0 0 0-7.636-1.483C.978 12.62-.945 19.432.429 23.717l5 15.327c.055-.22.11-.385.165-.6a20.2 20.2 0 0 1 4.01-7.2c1.593-1.868 3.516-4.23 5.439-6.537l5.219-6.428a10.5 10.5 0 0 1 .989-1.209l.11-.11c-2.693-1.044-5.385-2.088-7.528-2.967m-8.021 11.1a1.97 1.97 0 0 1-1.978-1.978v-3.241a1.97 1.97 0 0 1 1.978-1.978h3.241a1.91 1.91 0 0 1 1.923 1.648 3.6 3.6 0 0 0-.6.659v-.385a1.36 1.36 0 0 0-1.373-1.373H5.817a1.36 1.36 0 0 0-1.373 1.373v3.241a1.36 1.36 0 0 0 1.373 1.373h2.307l.549.6H5.816Zm5.274-1.978a2.1 2.1 0 0 1-1.1 1.813l.165-.385a10.5 10.5 0 0 1 .989-2.033Zm1.428-3.021c-1.538.934-2.637 3.461-2.967 4.23l-.165.549-2.472-2.582.33-.879L8.998 23.5c1.264-2.417 2.527-3.9 3.791-4.395Z"/></g></g></svg>