<svg xmlns="http://www.w3.org/2000/svg" id="Layer_1" data-name="Layer 1" viewBox="0 0 306.07 77.86"><defs><clipPath id="clip-path" transform="translate(-27.21 -27.21)"><path d="M27.21 27.21h305.8v53.92H27.21z" class="cls-1"/></clipPath><clipPath id="clip-path-2" transform="translate(-27.21 -27.21)"><path d="M60.25 71.3a32.1 32.1 0 0 0 9.87-1.56c.75-.25 1.47-.53 2.14-.83a12 12 0 0 1-3.62 5 24.5 24.5 0 0 1-10.82 4.49 25.2 25.2 0 0 0 2.43-7m-16.66 4.81a1.3 1.3 0 0 0-.25-.16c-1.39-.68-2-3.78-1.23-8.53a43 43 0 0 0 8.66 2.81 45.6 45.6 0 0 0 6.89.92c-1.11 4.82-2.53 7.35-3.47 7.35H54a24.5 24.5 0 0 1-10.43-2.41M30.66 60.86a13 13 0 0 1-.41-2.49 21.7 21.7 0 0 0 3.08 3.48 30.6 30.6 0 0 0 6.43 4.51 23.3 23.3 0 0 0-.32 7.31 24.47 24.47 0 0 1-8.78-12.81m31.17-6.74v-2.94a19.4 19.4 0 0 0 8.38-2.38 29.6 29.6 0 0 1 3.3 13.2 21.3 21.3 0 0 1-.3 3.56 19.3 19.3 0 0 1-3.89 1.78 29.6 29.6 0 0 1-8.6 1.43 91 91 0 0 0 1.11-14.67M51.29 67.88A40.3 40.3 0 0 1 42.6 65a64 64 0 0 1 5.07-14q.55-1.14 1.14-2.25a29 29 0 0 0 5.82 1.89 28 28 0 0 0 4.65.57v2.9a84.5 84.5 0 0 1-1.15 14.64 41 41 0 0 1-6.88-.88M35 60a15.9 15.9 0 0 1-4.34-6.12A19.4 19.4 0 0 1 34.11 47 27.2 27.2 0 0 1 40 41.35a14.1 14.1 0 0 0 2.75 3.45 21.3 21.3 0 0 0 3.86 2.82c-.4.75-.79 1.51-1.17 2.29a69.5 69.5 0 0 0-5.1 13.89A28.2 28.2 0 0 1 35 60m25.09-23.3a33.7 33.7 0 0 1 7.66 8.06c.41.61.8 1.22 1.17 1.85a17.1 17.1 0 0 1-7.27 2 68.7 68.7 0 0 0-1.56-12m-5 11.48A26 26 0 0 1 50 46.55a53.8 53.8 0 0 1 7.42-10.3 66 66 0 0 1 1.76 12.45 22.5 22.5 0 0 1-4-.51M44.44 43a11.4 11.4 0 0 1-2.36-3 33.5 33.5 0 0 1 7.72-3.4 39 39 0 0 1 5-1.12 59 59 0 0 0-7 10A18.6 18.6 0 0 1 44.44 43M39 35a3 3 0 0 1-.09.39A7.9 7.9 0 0 0 39 39a29.4 29.4 0 0 0-6.91 6.54 24 24 0 0 0-1.54 2.29A24.5 24.5 0 0 1 39 35m2.36.91a6 6 0 0 1 2.27-3.43 15.73 15.73 0 0 1 9.91.65 37.5 37.5 0 0 0-12.27 4.4 4.9 4.9 0 0 1 .09-1.62M61.7 32.6a8.3 8.3 0 0 1 2.3-1.09 19 19 0 0 1 3.69 2 31.2 31.2 0 0 0-6-.87m-4.17-2.74a27 27 0 0 1 3.21.55 15.3 15.3 0 0 0-2.15 1.41 12.3 12.3 0 0 0-1.06-2m-2.72 1a23 23 0 0 0-3.36-1 24 24 0 0 1 2.69-.15c.43 0 .95.52 1.51 1.51-.28-.12-.56-.24-.84-.34M27.21 54.17a27.2 27.2 0 0 0 1 7.39l.12.47v.09a26.93 26.93 0 0 0 41 14.36l.13-.07c.26-.18.51-.36.75-.55a27 27 0 0 0 10.11-15.14c.09-.29.16-.58.23-.87v-.2a27 27 0 0 0-1.56-16 1.26 1.26 0 0 0-2.31 1A24.43 24.43 0 0 1 77.9 60a8.75 8.75 0 0 1-1.9 3.32V62a32.26 32.26 0 0 0-3.79-14.67 9.63 9.63 0 0 0 3.36-5.62 1.25 1.25 0 1 0-2.46-.45A7.05 7.05 0 0 1 71 45.12c-.36-.6-.73-1.19-1.12-1.76a36.7 36.7 0 0 0-7.68-8.25 23.9 23.9 0 0 1 10.08 2.74 1.3 1.3 0 0 0 1.44-.1 1.26 1.26 0 0 0 .13-1.75c-4-5.66-11-8.77-19.68-8.77a27 27 0 0 0-27 27" class="cls-1"/></clipPath><radialGradient id="radial-gradient" cx="-265.36" cy="-192.23" r="1.4" gradientTransform="matrix(31.93 0 0 -31.93 8525.5 -6129.39)" gradientUnits="userSpaceOnUse"><stop offset="0" stop-color="#fff"/><stop offset=".06" stop-color="#ebf9fe"/><stop offset=".18" stop-color="#b6e8fa"/><stop offset=".36" stop-color="#61cdf5"/><stop offset=".54" stop-color="#00aeef"/><stop offset="1" stop-color="#002f54"/></radialGradient><style>.cls-1{fill:none}.cls-2{fill:#002f54}.cls-4{fill:#00aeef}</style></defs><g id="CMYK"><path d="M60.71 9.39h11.08v35.3H60.71zM75.57 9.38h24.69v8.5H86.64v5.71h12.12v8.5H86.64v12.59H75.57z" class="cls-2"/><g style="clip-path:url(#clip-path)"><path d="M127 43.79a26.1 26.1 0 0 1-7.93 1.42c-9.57 0-17.24-6.17-17.24-18.76 0-11.82 8-17.74 17.24-17.74a32 32 0 0 1 7.85 1.08v9.3a16 16 0 0 0-5.53-1.3c-4.71 0-8.26 3.08-8.26 8.85 0 6.06 3.3 9.14 7.88 9.14a15.2 15.2 0 0 0 6-1.36ZM241.57 39.99c1.78 0 2.76.86 2.76 2.43a2.29 2.29 0 0 1-2.54 2.37h-1.13v2.27h-1.51v-7.07Zm-1 3.57h.89c.88 0 1.32-.39 1.32-1.14s-.49-1.18-1.36-1.18h-.85Zm-4.27.66c0 1-.4 1.54-1.22 1.54s-1.24-.52-1.24-1.54v-4.23h-1.5v4.13a3.1 3.1 0 0 0 .74 2.28 2.78 2.78 0 0 0 2 .7c1.25 0 2.72-.51 2.72-3v-4.11h-1.5Zm-8.06-4.29c1.52 0 3.15 1 3.15 3.6s-1.63 3.57-3.15 3.57-3.16-.94-3.16-3.57 1.63-3.6 3.16-3.6m0 5.86c.6 0 1.6-.3 1.6-2.26s-1-2.27-1.6-2.27c-1 0-1.61.81-1.61 2.27s.57 2.26 1.61 2.26m-4.71-.88c.24.5.46.94 1 .94h.35v1.16h-.09a3.5 3.5 0 0 1-.73.07c-1.19 0-1.55-.81-1.87-1.53s-.49-1.1-1.11-1.1h-.66v2.59h-1.51v-7h2.51c1.82 0 2.67.71 2.67 2.24a1.88 1.88 0 0 1-1.13 1.78 3.3 3.3 0 0 1 .57.9m-3.11-1.62h.83c.84 0 1.36-.39 1.36-1s-.45-1-1.25-1h-.94Zm-5.51 1.18h1.55v.08a1.12 1.12 0 0 1-1 1.24 1 1 0 0 1-.23 0c-1 0-1.63-.84-1.63-2.24s.59-2.27 1.6-2.27a1.27 1.27 0 0 1 1.26 1.28v.08l1.4-.22v-.06A2.54 2.54 0 0 0 215.2 40c-2 0-3.13 1.31-3.13 3.6s1.18 3.57 3.15 3.57a2.47 2.47 0 0 0 2.68-2.24v-1.62h-3Zm-4.5-4.48h-1.78l-2.34 3.18v-3.23h-1.5v7.06h1.52v-3.26l2.4 3.25h1.8l-2.72-3.55Zm-8.49 4.36-2.43-4.41h-1.53v7.06h1.51v-4.21l2.46 4.21h1.53v-7.06h-1.5Zm-7-4.31 2.57 7h-1.56l-.6-1.74h-2.35l-.59 1.74h-1.5l2.59-7.06h1.49Zm-.77 1.88-.76 2.22h1.54Zm-4.73 1.4a1.71 1.71 0 0 1 1.37 1.67c0 1.27-.9 2-2.47 2h-3v-7h2.69c1.53 0 2.3.64 2.3 1.9 0 1-.44 1.32-.79 1.43m-1.73-.5c.63 0 .92-.26.92-.83s-.37-.8-1.1-.8h-.82v1.63Zm-1 2.92h1.17c.77 0 1.13-.29 1.13-.91s-.63-.92-1.16-.92h-1.14Zm-7.7-5.81c2.2 0 3.51 1.36 3.51 3.65s-1.17 3.41-3.21 3.41h-2.4v-7Zm-.58 5.81h.88c1.08 0 1.73-.82 1.73-2.19 0-1.57-.69-2.37-2-2.37h-.57Zm-5.26-5.81h-1.46v7.06h4.56v-1.25h-3.06Zm-3.53 4.92c.25.5.47.94 1 .94h.36V47a3.5 3.5 0 0 1-.73.07c-1.19 0-1.55-.81-1.87-1.53s-.49-1.1-1.11-1.1h-.67v2.59h-1.5v-7h2.5c1.83 0 2.68.71 2.68 2.24a1.89 1.89 0 0 1-1.13 1.78 2.9 2.9 0 0 1 .56.9m-3.11-1.62h.84c.84 0 1.36-.39 1.36-1s-.46-1-1.24-1h-1Zm-5.51-3.36c1.53 0 3.16 1 3.16 3.6s-1.63 3.57-3.16 3.57-3.16-.94-3.16-3.57 1.64-3.6 3.16-3.6m0 5.86c.6 0 1.6-.3 1.6-2.26s-1-2.27-1.6-2.27c-1 0-1.6.81-1.6 2.27s.56 2.26 1.6 2.26m-5.07-5.8h1.67l-2 7.06h-1.7l-1.3-4.47-1.25 4.43h-1.75l-2-7.06h1.75l1.25 5.15 1.42-5.15h1.26l1.32 5.15Z" class="cls-2"/><path d="M148.48 7.61h2.85v10.72h-2.85zM153.18 10.33h2.51v1.46a3 3 0 0 1 2.92-1.65 2.9 2.9 0 0 1 3.07 2.72 2.5 2.5 0 0 1 0 .47v5h-2.77v-3.87c0-1.5-.52-2-1.27-2-1.14 0-1.72.78-1.72 2.5v3.38h-2.76ZM162.56 10.33h1.62v-1.8l2.72-.84v2.64h1.89v1.93h-1.93v3c0 1 .23 1.46 1.1 1.46a5 5 0 0 0 .85-.11l.09 1.8a12.5 12.5 0 0 1-1.73.15c-2.48 0-3.07-1.09-3.07-3v-3.3h-1.58ZM172.33 15.14c.15 1.1 1 1.53 2.35 1.53a5.2 5.2 0 0 0 2.44-.61v1.95a7.9 7.9 0 0 1-2.93.5c-2.64 0-4.65-1.55-4.65-4.19a4 4 0 0 1 3.82-4.17h.43c3 0 4 2.1 4 4.48v.51Zm3-1.57a1.46 1.46 0 0 0-1.23-1.66 1.5 1.5 0 0 0-.3 0c-1 0-1.48.75-1.54 1.67ZM184.86 12.54a3.3 3.3 0 0 0-.94-.09c-1.29 0-2 .94-2 2.5v3.38h-2.76v-8h2.52v1.46a2.46 2.46 0 0 1 2.36-1.65 5 5 0 0 1 .94.09ZM186.08 10.33h2.52v1.46a3 3 0 0 1 2.92-1.65 2.9 2.9 0 0 1 3.06 2.73 2.4 2.4 0 0 1 0 .46v5h-2.79v-3.87c0-1.5-.52-2-1.28-2-1.13 0-1.72.78-1.72 2.5v3.38h-2.76ZM201.4 18.33c0-.43-.06-.84-.06-1.26a2.74 2.74 0 0 1-2.55 1.44c-1.57 0-3-.78-3-2.51 0-2.45 2.66-2.74 4.13-2.74a8 8 0 0 1 1.29.11c0-1.09-.83-1.38-1.83-1.38a5.2 5.2 0 0 0-2.54.6v-1.88a8.5 8.5 0 0 1 3.19-.56c2 0 3.81.87 3.81 3.31v3a10 10 0 0 0 .15 1.89Zm-1.91-1.66a1.8 1.8 0 0 0 1.71-1.88h-1.16c-.94 0-1.68.29-1.68 1.06 0 .55.49.87 1.13.87M204.69 10.33h1.62v-1.8l2.72-.84v2.64h1.93v1.93h-1.93v3c0 1 .23 1.46 1.1 1.46a5 5 0 0 0 .85-.11l.09 1.8a13 13 0 0 1-1.74.15c-2.47 0-3.07-1.09-3.07-3v-3.3h-1.57ZM215.14 9.03h-2.77v-2h2.77Zm-2.76 1.3h2.76v8h-2.76ZM216.64 14.34c0-2.66 2-4.19 4.65-4.19s4.65 1.53 4.65 4.19-2 4.17-4.65 4.17-4.65-1.53-4.65-4.17m6.45 0c0-1.2-.52-2.26-1.8-2.26s-1.79 1.06-1.79 2.26.52 2.24 1.79 2.24 1.8-1.06 1.8-2.24M227.13 10.33h2.51v1.46a3 3 0 0 1 2.92-1.65 2.89 2.89 0 0 1 3.06 2.71 2.6 2.6 0 0 1 0 .48v5h-2.76v-3.87c0-1.5-.52-2-1.28-2-1.13 0-1.71.78-1.71 2.5v3.38h-2.76ZM242.44 18.33c0-.43-.06-.84-.06-1.26a2.73 2.73 0 0 1-2.59 1.44c-1.59 0-3-.78-3-2.51 0-2.45 2.66-2.74 4.13-2.74a8 8 0 0 1 1.29.11c0-1.09-.83-1.38-1.83-1.38a5.2 5.2 0 0 0-2.54.6l-.05-1.88a8.5 8.5 0 0 1 3.19-.56c2 0 3.81.87 3.81 3.31v3a10 10 0 0 0 .15 1.89Zm-1.9-1.66a1.8 1.8 0 0 0 1.7-1.89h-1.16c-.94 0-1.68.29-1.68 1.06 0 .55.49.87 1.14.87M246.76 6.82h2.76v11.51h-2.76zM148.5 22.17h7.16v2.03h-4.31v2.34h4.13v2.03h-4.13v4.31h-2.85zM159.9 23.58h-2.76v-2h2.76Zm-2.76 1.3h2.76v8h-2.76ZM161.79 24.89h2.52v1.47a3 3 0 0 1 2.91-1.66 2.9 2.9 0 0 1 3.07 2.72 2.6 2.6 0 0 1 0 .48v5h-2.76v-3.89c0-1.5-.53-2-1.28-2-1.14 0-1.72.79-1.72 2.5v3.38h-2.74ZM177.11 32.88c0-.43-.06-.84-.06-1.26a2.77 2.77 0 0 1-2.54 1.45c-1.58 0-3-.79-3-2.52 0-2.44 2.65-2.73 4.13-2.73a8 8 0 0 1 1.29.1c0-1.08-.83-1.38-1.83-1.38a5.26 5.26 0 0 0-2.55.6v-1.87a8.3 8.3 0 0 1 3.19-.57c2 0 3.81.88 3.81 3.32v3a10 10 0 0 0 .15 1.89Zm-1.9-1.65a1.8 1.8 0 0 0 1.7-1.89h-1.12c-.93 0-1.67.29-1.67 1.06 0 .55.49.88 1.14.88M181.1 24.89h2.52v1.47a3 3 0 0 1 2.91-1.66 2.92 2.92 0 0 1 3.07 2.74 2.4 2.4 0 0 1 0 .46v5h-2.81v-3.89c0-1.5-.53-2-1.28-2-1.14 0-1.72.79-1.72 2.5v3.38h-2.76ZM197.44 27.18a3 3 0 0 0-1.66-.45 2.06 2.06 0 0 0-2.13 2 1 1 0 0 0 0 .23 2.16 2.16 0 0 0 2.22 2.1h.06a3.75 3.75 0 0 0 1.71-.38l.07 2.05a7.2 7.2 0 0 1-2.26.36c-2.64 0-4.65-1.54-4.65-4.18s2-4.19 4.65-4.19a4.9 4.9 0 0 1 2.19.45ZM201.12 29.69c.15 1.1 1 1.54 2.34 1.54a5.2 5.2 0 0 0 2.44-.62v2a8.2 8.2 0 0 1-2.93.51c-2.64 0-4.65-1.56-4.65-4.19a4 4 0 0 1 3.81-4.14h.47c3 0 4 2.1 4 4.48v.52Zm3-1.56c0-.93-.43-1.68-1.53-1.68s-1.48.75-1.53 1.68ZM221.54 32.64a12 12 0 0 1-3.17.43c-2.86 0-6.16-1.45-6.16-5.5 0-3.73 2.61-5.59 6.14-5.59a11.1 11.1 0 0 1 3.18.56l-.23 2.31a5.6 5.6 0 0 0-2.8-.75 3.43 3.43 0 0 0-.06 6.86h.29a7.4 7.4 0 0 0 2.67-.56ZM222.17 28.89c0-2.65 2-4.19 4.66-4.19s4.64 1.54 4.64 4.19-2 4.18-4.64 4.18-4.66-1.54-4.66-4.18m6.45 0c0-1.19-.52-2.25-1.79-2.25s-1.8 1.06-1.8 2.25.52 2.24 1.8 2.24 1.79-1.06 1.79-2.24M238.37 27.1a3 3 0 0 0-.94-.1c-1.29 0-2 .94-2 2.51v3.37h-2.76v-8h2.51v1.47a2.49 2.49 0 0 1 2.37-1.66 7 7 0 0 1 .93.09ZM239.4 24.89h2.54v1.44a3.15 3.15 0 0 1 3-1.63c2.2 0 3.42 2.1 3.42 4 0 2.36-1.28 4.33-3.66 4.33a2.76 2.76 0 0 1-2.51-1.24v4.35h-2.76Zm4.45 1.9c-1 0-1.69.89-1.69 2.09a1.87 1.87 0 0 0 1.69 2c1 0 1.67-.87 1.67-2.15a1.77 1.77 0 0 0-1.52-2h-.15M249.17 28.89c0-2.65 2-4.19 4.66-4.19s4.65 1.54 4.65 4.19-2 4.18-4.65 4.18-4.66-1.54-4.66-4.18m6.45 0c0-1.19-.52-2.25-1.79-2.25s-1.8 1.06-1.8 2.25.52 2.24 1.8 2.24 1.79-1.06 1.79-2.24M265.37 27.1a3 3 0 0 0-.94-.1c-1.29 0-2 .94-2 2.51v3.37h-2.76v-8h2.52v1.47a2.47 2.47 0 0 1 2.36-1.66 8 8 0 0 1 .94.09ZM271.55 32.88c0-.43-.06-.84-.06-1.26a2.75 2.75 0 0 1-2.53 1.45c-1.58 0-3-.79-3-2.52 0-2.44 2.65-2.73 4.12-2.73a8 8 0 0 1 1.29.1c0-1.08-.82-1.38-1.82-1.38a5.26 5.26 0 0 0-2.55.6v-1.87a8.4 8.4 0 0 1 3.2-.57c2 0 3.81.88 3.81 3.32v3a9.2 9.2 0 0 0 .15 1.89Zm-1.9-1.65a1.79 1.79 0 0 0 1.7-1.87h-1.16c-.94 0-1.68.29-1.68 1.06 0 .55.5.88 1.14.88M274.84 24.89h1.63V23.1l2.71-.85v2.64h1.93v1.9h-1.93v3c0 1 .23 1.47 1.11 1.47a6 6 0 0 0 .84-.11l.09 1.79a11 11 0 0 1-1.73.16c-2.47 0-3.07-1.09-3.07-3v-3.31h-1.58ZM285.29 23.58h-2.76v-2h2.76Zm-2.76 1.3h2.76v8h-2.76ZM286.79 28.89c0-2.65 2-4.19 4.65-4.19s4.65 1.54 4.65 4.19-2 4.18-4.65 4.18-4.65-1.54-4.65-4.18m6.44 0c0-1.19-.52-2.25-1.79-2.25s-1.8 1.06-1.8 2.25.52 2.24 1.8 2.24 1.79-1.06 1.79-2.24M297.28 24.89h2.51v1.47a3 3 0 0 1 3-1.66 2.9 2.9 0 0 1 3.07 2.72 2.6 2.6 0 0 1 0 .48v5h-2.77v-3.89c0-1.5-.52-2-1.27-2-1.13 0-1.72.79-1.72 2.5v3.38h-2.76Z" class="cls-4"/><path d="M138.43 47.25a.5.5 0 0 1-.48-.48V7.15a.5.5 0 0 1 1 0v39.64a.47.47 0 0 1-.48.48" class="cls-2"/></g><g style="clip-path:url(#clip-path-2)"><path d="M0 0h53.92v53.92H0z" style="fill:url(#radial-gradient)"/></g></g><g id="Tagline"><path d="M327.78 99.27a2 2 0 0 0-.4 1c0 1 1.36 1.24 2.18 1.24a2.88 2.88 0 0 0 2-.73c.44-.4 1.11-1.09 1.11-1.71 0-1.67-3-2-3-3.33 0-.62.7-.91 1.28-.91a1.87 1.87 0 0 1 1.41.57c.06.13.1.24.23.24h.21c.21 0 .36-.52.36-.72 0-.78-.79-1-1.49-1a2 2 0 0 0-1.27.35c-.67.4-1.86 1.11-1.86 2a1.55 1.55 0 0 0 .15.73c.5 1 3 1.73 3 2.83 0 .61-1.05.73-1.53.73-.89 0-2-.37-2.17-1.28Zm-5.95-1.51c.28-1.05 1.63-3.29 2.95-3.29a.65.65 0 0 1 .7.58v.1c0 1.75-2.07 2.51-3.65 2.61m4.17 1.39a4.8 4.8 0 0 1-3 1.49 1.25 1.25 0 0 1-1.4-1.06 1 1 0 0 1 0-.17 5 5 0 0 1 .14-1.23c1.83-.16 5.1-.92 5.1-3.09 0-.88-.91-1.13-1.67-1.13-2.49 0-4.94 2.82-4.94 5.38a2 2 0 0 0 1.83 2.16 3 3 0 0 0 .28 0 5.54 5.54 0 0 0 3.88-2.08Zm-7.13-8.92a.8.8 0 0 0-.78.75.79.79 0 0 0 .78.72.74.74 0 0 0 .17-1.47.5.5 0 0 0-.17 0m-2.84 6c.21-.26.86-1 1.22-1a.18.18 0 0 1 .2.16 2 2 0 0 1-.15.59l-1.47 4.06a3 3 0 0 0-.19.78c0 .37.15.64.65.64 1 0 2.19-1.44 2.72-2.11l-.27-.21c-.18.18-1.06 1-1.31 1s-.22-.08-.22-.24a2.6 2.6 0 0 1 .17-.67l1.41-4.06a3.5 3.5 0 0 0 .24-.89c0-.24-.12-.4-.53-.4-1 0-2.21 1.37-2.71 2.07Zm-3.92-2.07h-1.66l-.21.66h1.68l-1.52 4.8a3.8 3.8 0 0 0-.23 1 .78.78 0 0 0 .71.83h.05c1.25 0 2.65-1.5 3.42-2.3l-.24-.27c-.44.41-1.45 1.39-2.12 1.39a.31.31 0 0 1-.34-.28v-.07a1.7 1.7 0 0 1 .1-.5l1.49-4.62h1.81l.21-.66h-1.83l.7-2h-1.37Zm-3.53-4a.74.74 0 1 0 .1 1.48.76.76 0 0 0 .69-.73.8.8 0 0 0-.79-.75m-2.84 6c.2-.26.86-1 1.22-1a.18.18 0 0 1 .2.16 2 2 0 0 1-.16.68l-1.48 4.06a3.4 3.4 0 0 0-.18.78c0 .37.15.64.65.64 1 0 2.19-1.44 2.72-2.11l-.28-.21c-.17.18-1.06 1-1.3 1s-.22-.08-.22-.24a2.6 2.6 0 0 1 .17-.67l1.41-4.06a3.5 3.5 0 0 0 .24-.89c0-.24-.13-.4-.53-.4-1 0-2.21 1.37-2.71 2.07Zm-9.74 0 .46-.48a1.57 1.57 0 0 1 1-.55c.21 0 .27.13.27.29a3.2 3.2 0 0 1-.2.8l-1.68 4.78a.86.86 0 0 0 .55.21c.21 0 .58 0 .63-.18l.35-.91a9.15 9.15 0 0 1 2.14-3.27c.56-.59 1.54-1.67 2.5-1.67.18 0 .39.1.39.31a3.3 3.3 0 0 1-.22.8l-1.34 3.4a2.45 2.45 0 0 0-.24 1c0 .28.21.52.65.52a3.45 3.45 0 0 0 2.38-1.39l.62-.7L304 99c-.26.37-1 1.12-1.47 1.12-.25 0-.31-.14-.31-.34a2.7 2.7 0 0 1 .25-.83l1.37-3.52a2.3 2.3 0 0 0 .17-.78c0-.35-.15-.65-.68-.65-1.68 0-4.21 2.62-5 3.72l.89-2.42a2.2 2.2 0 0 0 .19-.76.5.5 0 0 0-.47-.54.4.4 0 0 0-.11 0c-1.13 0-2.33 1.26-3 2ZM294.44 99c-.35.25-1.05 1-1.49 1-.19 0-.26-.1-.26-.22a.6.6 0 0 1 .05-.23l1.87-5.21c-.19-.16-.48-.46-.77-.46s-.47.2-.59.49c-.58 1.42-3.81 5.53-5 5.53-.15 0-.29 0-.29-.16a.8.8 0 0 1 0-.22l1.54-4.3a2.4 2.4 0 0 0 .22-.83.49.49 0 0 0-.48-.51.3.3 0 0 0-.09 0c-.8 0-1.71.83-2.41 1.48l-.58.56.27.27c.33-.3.93-1 1.42-1a.21.21 0 0 1 .23.19 1.2 1.2 0 0 1-.07.36l-1.43 4.26a2.3 2.3 0 0 0-.17.69.68.68 0 0 0 .72.62c1.67 0 4.46-3.56 5.3-4.57l-1 2.83a4 4 0 0 0-.33 1.18c0 .35.23.56.64.56 1.15 0 2.22-1.23 2.93-2ZM283 94.19h-1.66l-.21.66h1.68l-1.52 4.8a3.8 3.8 0 0 0-.23 1 .78.78 0 0 0 .71.83c1.25 0 2.66-1.5 3.43-2.3l-.24-.27c-.45.41-1.46 1.39-2.12 1.39a.32.32 0 0 1-.35-.29V100a1.5 1.5 0 0 1 .11-.5l1.49-4.62h1.81l.21-.66h-1.84l.71-2h-1.38Zm-8.65 2.18c.27-.32 1-1.07 1.44-1.07.22 0 .32.24.32.41a4.2 4.2 0 0 1-.2 1l-1.35 4.41a.3.3 0 0 0 0 .14c0 .15.33.29.55.29s.58 0 .62-.13l.3-1c.57-1.63 1.78-4.73 3-4.73.21 0 .43.06.64.06.53 0 .72-.82.72-1.18A.47.47 0 0 0 280 94a.3.3 0 0 0-.14 0c-1.08 0-2.69 2.81-3.15 3.62l.65-2.19a3.4 3.4 0 0 0 .17-.83c0-.43-.27-.6-.7-.6-.84 0-2.15 1.54-2.58 2.14ZM265 98.29a3.1 3.1 0 0 0 3 3.22 3 3 0 0 0 .41 0 4.5 4.5 0 0 0 4.5-4.3 3.13 3.13 0 0 0-3.05-3.2 2 2 0 0 0-.26 0 4.56 4.56 0 0 0-4.6 4.28m1.37.54c0-1.76.91-4.46 3.21-4.46 1.47 0 1.93 1.12 1.93 2.26 0 1.64-.94 4.46-3.15 4.46-1.51 0-2-1.06-2-2.26m-7.63-4.12a3.7 3.7 0 0 1 1.47-.24c.6 0 1.66.17 1.66 1.48 0 1.56-1.68 5.14-3.46 5.14-.62 0-.94-.72-.94-1.07a5.2 5.2 0 0 1 .19-1.3Zm-1.3-.18a18 18 0 0 0-2.06.69l-.12.62a16 16 0 0 1 2-.77l-2.6 9.71.1.13 1.18-.13 1.51-.11.08-.29-1.38-.22.86-3.16a2.4 2.4 0 0 0 1.37.46c2.5 0 4.94-3.42 4.94-5.56 0-1.51-1.13-2-2.58-2a5.7 5.7 0 0 0-1.88.28l.53-2-1.43.38Zm-8.14.18a3.7 3.7 0 0 1 1.48-.24 1.44 1.44 0 0 1 1.64 1.21 1.7 1.7 0 0 1 0 .32c0 1.56-1.68 5.14-3.46 5.14-.62 0-1-.72-1-1.07a6.4 6.4 0 0 1 .19-1.3Zm-1.3-.18a18 18 0 0 0-2 .69l-.12.62a16 16 0 0 1 2-.77l-2.6 9.71.1.13 1.18-.13 1.51-.11.09-.29-1.39-.22.84-3.12a2.4 2.4 0 0 0 1.37.46c2.5 0 4.95-3.42 4.95-5.56 0-1.51-1.13-2-2.59-2a5.7 5.7 0 0 0-1.88.28l.53-2-1.42.38Zm-16.32 1.7c0 3.26 2.36 5.27 5.79 5.27a6.63 6.63 0 0 0 6.85-6.39v-.21c0-3-2.79-5-5.88-5a6.55 6.55 0 0 0-6.76 6.33m1.68.33c0-2.86 1.56-6.19 5.1-6.19 2.91 0 4.18 2.16 4.18 4.56 0 2.67-1.71 6.06-5.09 6.06-3 0-4.19-1.92-4.19-4.43m-10.24-.83c0 1.09-.75 2.74-2.12 2.74-1 0-1.26-.66-1.26-1.43 0-1 .78-2.73 2.16-2.67a1.21 1.21 0 0 1 1.23 1.19 1 1 0 0 1 0 .17m-1 6.41c.45.21.84.53.84 1 0 1-1.66 1.3-2.48 1.3-1.05 0-2.61-.38-2.61-1.59 0-.89 1.73-1.59 2.07-1.71Zm-2-2.4c-.18-.08-.33-.14-.33-.35s.38-.51.53-.56h.79c1.68 0 3.46-1.07 3.46-2.75a1.83 1.83 0 0 0-.55-1.34c.65.06 1 .41 1.35.41s.41-.3.41-.59-.05-.46-.27-.46a1 1 0 0 0-.53.19 1.3 1.3 0 0 1-.57.19 1.6 1.6 0 0 1-.36-.08 7.5 7.5 0 0 0-2.35-.4c-1.62 0-3.34 1.18-3.34 2.68a2.13 2.13 0 0 0 1.45 2c-.46.29-1.38.77-1.38 1.37s.63.69.95.88c-.95.36-2.68 1-2.68 2.18 0 1.55 2.31 1.84 3.52 1.84 1.39 0 3.82-.66 3.82-2.27 0-.93-.55-1.2-1.33-1.6Zm-11.69-3.44.46-.48a1.62 1.62 0 0 1 1-.55c.2 0 .27.13.27.29a2.8 2.8 0 0 1-.21.8l-1.67 4.73a.83.83 0 0 0 .54.21c.21 0 .59 0 .64-.18l.34-.91a9.4 9.4 0 0 1 2.14-3.27c.56-.59 1.54-1.67 2.5-1.67.19 0 .39.1.39.31a3.3 3.3 0 0 1-.22.8l-1.34 3.4a2.7 2.7 0 0 0-.23 1c0 .28.2.52.65.52a3.46 3.46 0 0 0 2.31-1.43l.61-.7-.31-.17c-.26.37-1 1.12-1.47 1.12-.24 0-.31-.14-.31-.34a2.7 2.7 0 0 1 .26-.83l1.37-3.52a2.6 2.6 0 0 0 .17-.78c0-.35-.16-.65-.69-.65-1.67 0-4.21 2.62-5 3.72l.9-2.42a2.5 2.5 0 0 0 .18-.76.5.5 0 0 0-.47-.54.4.4 0 0 0-.11 0c-1.13 0-2.33 1.26-3 2Zm-1.53-6a.8.8 0 0 0-.9.69.79.79 0 1 0 .78-.75m-2.84 6c.21-.26.86-1 1.22-1a.18.18 0 0 1 .2.16 2 2 0 0 1-.15.59l-1.47 4.06a3 3 0 0 0-.19.78c0 .37.15.64.65.64 1 0 2.19-1.44 2.72-2.11l-.27-.21c-.17.18-1.06 1-1.3 1s-.23-.08-.23-.24a2.6 2.6 0 0 1 .18-.67l1.4-4.06a3.5 3.5 0 0 0 .24-.89c0-.24-.12-.4-.53-.4-1 0-2.21 1.37-2.71 2.07ZM200 94.18h-1.66l-.2.66h1.67l-1.52 4.8a3.8 3.8 0 0 0-.22 1 .76.76 0 0 0 .69.83h.06c1.25 0 2.65-1.5 3.42-2.3l-.24-.27c-.44.41-1.45 1.39-2.12 1.39a.31.31 0 0 1-.34-.28v-.07a1.7 1.7 0 0 1 .1-.5l1.49-4.62H203l.2-.66h-1.83l.7-2h-1.37Zm-4.4.29a1.46 1.46 0 0 0-1.08-.52c-2.21 0-5.55 3.67-5.55 6.22a1.21 1.21 0 0 0 1.09 1.32 2 2 0 0 0 .21 0c1.37 0 3-1.83 3.84-3.07l-.48 1.41a4.2 4.2 0 0 0-.29 1.16c0 .33.32.45.58.45 1.08 0 2.07-1.42 2.74-2.08l-.28-.2c-.32.27-.77.94-1.26.94a.2.2 0 0 1-.21-.19 1.1 1.1 0 0 1 .07-.4l1.69-5.68v-.13a.19.19 0 0 0-.15-.08h-.36c-.21 0-.31.21-.38.32Zm-5.36 4.74c0-1.59 2-4.51 3.8-4.51a.89.89 0 0 1 .86.81c0 1.42-2.13 4.8-3.79 4.8-.67 0-.87-.56-.87-1.1m-6.8-1.46c.28-1 1.63-3.29 2.95-3.29a.65.65 0 0 1 .7.58v.1c0 1.75-2.07 2.51-3.65 2.61m4.16 1.39a4.75 4.75 0 0 1-3 1.49 1.24 1.24 0 0 1-1.39-1.07 1 1 0 0 1 0-.16 4.7 4.7 0 0 1 .14-1.23c1.83-.16 5.1-.92 5.1-3.09 0-.88-.91-1.13-1.68-1.13-2.48 0-4.93 2.82-4.93 5.38a2 2 0 0 0 1.83 2.16h.33a5.58 5.58 0 0 0 3.89-2.08Zm-12.24-2.78c.27-.32 1-1.07 1.44-1.07.22 0 .32.24.32.41a3.8 3.8 0 0 1-.2 1l-1.35 4.41a.3.3 0 0 0 0 .14c0 .15.33.29.55.29s.58 0 .62-.13l.31-1c.56-1.63 1.77-4.73 3-4.73.2 0 .42.06.63.06.53 0 .72-.82.72-1.18a.47.47 0 0 0-.4-.56h-.14c-1.08 0-2.69 2.81-3.15 3.62l.65-2.19a3.4 3.4 0 0 0 .17-.83c0-.43-.27-.6-.7-.6-.84 0-2.15 1.54-2.58 2.14Zm-.57-6-.2-.11c-.15.13-.31.32-.53.32-.56 0-.87-.75-3.43-.75a6.55 6.55 0 0 0-6.74 6.27c0 3.25 2.41 5.37 5.7 5.37a5.8 5.8 0 0 0 2.19-.36 6 6 0 0 1 1.17-.39.94.94 0 0 1 .46.13l.68-2.72-.37-.08c-.83 1.79-1.94 2.91-4.11 2.91-2.66 0-3.94-2.08-3.94-4.86s1.81-5.76 5.31-5.76a3.16 3.16 0 0 1 2.24.77 2.18 2.18 0 0 1 .67 2l.34.1Zm-21.12 13.1c1.59 0 3.3-1 3.3-2.59a1.35 1.35 0 0 0-1.19-1.51h-.11c-.48 0-1.11.18-1.11.93a.7.7 0 0 0 .2.54c.34.34.58.24 1 .42a.33.33 0 0 1 .12.29c0 1.18-1.27 1.48-2.29 1.61Zm-5.95-4.23a1.93 1.93 0 0 0-.39 1c0 1 1.35 1.24 2.17 1.24a2.88 2.88 0 0 0 2-.73c.45-.4 1.11-1.09 1.11-1.71 0-1.67-3-2-3-3.33 0-.62.7-.91 1.29-.91a1.8 1.8 0 0 1 1.4.57c.07.13.1.24.24.24h.21c.2 0 .36-.52.36-.72 0-.78-.79-1-1.49-1a2 2 0 0 0-1.27.35c-.67.4-1.87 1.11-1.87 2a1.55 1.55 0 0 0 .16.73c.49 1 3 1.73 3 2.83 0 .61-1 .73-1.53.73-.89 0-2-.37-2.17-1.28Zm-3.48-5.08h-1.65l-.21.66h1.68l-1.53 4.8a4.3 4.3 0 0 0-.22 1 .78.78 0 0 0 .71.83h.05c1.24 0 2.65-1.5 3.42-2.3l-.24-.27c-.45.41-1.46 1.39-2.13 1.39a.31.31 0 0 1-.34-.28v-.07a1.5 1.5 0 0 1 .11-.5l1.49-4.62h1.81l.21-.66h-1.84l.71-2H145Zm-8.08 3.57c.28-1 1.63-3.29 2.95-3.29a.65.65 0 0 1 .7.58v.1c0 1.75-2.07 2.51-3.65 2.61m4.16 1.39a4.75 4.75 0 0 1-3 1.49 1.24 1.24 0 0 1-1.32-1.14 5 5 0 0 1 .14-1.23c1.83-.16 5.1-.92 5.1-3.09 0-.88-.91-1.13-1.68-1.13-2.48 0-4.93 2.82-4.93 5.38a2 2 0 0 0 1.83 2.16 3 3 0 0 0 .28 0 5.58 5.58 0 0 0 3.89-2.08Zm-8.66-3.49c0 1.29-2.19 2.18-3.42 2.28h-.72c.32-1.09 1.78-3.06 3.23-3.06.64 0 .91.32.91.75m-6.23 5.49c0 .18.24.34.56.34s.57-.08.64-.32l.84-2.88a1.5 1.5 0 0 1 .89.67l1.21 1.5a2.56 2.56 0 0 0 2 1 3.3 3.3 0 0 0 1.66-.41v-.42a1.16 1.16 0 0 1-.51.18 1.7 1.7 0 0 1-1.27-.42c-.8-.64-1.61-1.94-2.4-2.24 1.51-.33 3.84-1.42 3.84-3a1.15 1.15 0 0 0-1.2-1.08c-1.37 0-3 1.42-3.59 2.23l2-7.08-.2-.15a24 24 0 0 1-2.35.53v.26l.84.48Zm-6.37-4.78c.27-.32 1-1.07 1.44-1.07.22 0 .32.24.32.41a4.2 4.2 0 0 1-.2 1l-1.36 4.41v.14c0 .15.32.29.55.29s.58 0 .61-.13l.31-1c.57-1.63 1.78-4.73 3-4.73.21 0 .43.06.63.06.54 0 .73-.82.73-1.18a.48.48 0 0 0-.41-.54h-.13c-1.07 0-2.68 2.81-3.15 3.62l.65-2.19a3.4 3.4 0 0 0 .17-.83c0-.43-.27-.6-.7-.6-.84 0-2.16 1.54-2.59 2.14Zm-2.33-1.89a1.46 1.46 0 0 0-1-.41c-2.21 0-5.55 3.67-5.55 6.22a1.21 1.21 0 0 0 1.09 1.32h.21c1.37 0 3-1.83 3.84-3.07l-.47 1.41a4.6 4.6 0 0 0-.3 1.16c0 .33.33.45.59.45 1.08 0 2.07-1.42 2.74-2.08l-.28-.2c-.32.27-.77.94-1.27.94a.18.18 0 0 1-.2-.18 1.1 1.1 0 0 1 .07-.4l1.69-5.68v-.13s0-.08-.16-.08h-.36c-.2 0-.31.21-.37.32Zm-5.36 4.74c0-1.59 2-4.51 3.8-4.51a.88.88 0 0 1 .85.81c0 1.42-2.12 4.8-3.78 4.8-.67 0-.87-.56-.87-1.1m-17.33 2h3.82l.09-.41h-.69c-.57 0-.68-.26-.68-.63a2.3 2.3 0 0 1 .08-.46l1.87-7.42 2.26 8.92h.58l5.21-9.48-.63 8c-.09 1-.46 1.12-1.46 1.12h-.2l-.09.41h4.69l.09-.41h-.27c-.93 0-1.24-.29-1.19-1.15l.55-8.1c0-.73.33-1.09 1.32-1.09h.19l.08-.41h-3l-4.94 9-2.32-9h-3.1l-.09.41h.22c.76 0 1.27.12 1.56.87l-2 8c-.38 1.39-.69 1.54-1.65 1.54h-.18Zm-7.3-5.53c0 1.09-.75 2.74-2.12 2.74-.94 0-1.25-.66-1.25-1.43 0-1.05.77-2.73 2.16-2.67a1.2 1.2 0 0 1 1.22 1.18 1 1 0 0 1 0 .18m-1 6.41c.44.21.84.53.84 1 0 1-1.67 1.3-2.49 1.3-1 0-2.6-.38-2.6-1.59 0-.89 1.73-1.59 2.07-1.71Zm-2.06-2.4c-.17-.08-.32-.14-.32-.35s.37-.51.53-.56.52 0 .78 0c1.69 0 3.46-1.07 3.46-2.75a1.87 1.87 0 0 0-.54-1.34c.65.06 1 .41 1.35.41s.41-.3.41-.59 0-.46-.27-.46a1.07 1.07 0 0 0-.54.19 1.25 1.25 0 0 1-.56.19 1.6 1.6 0 0 1-.36-.08 7.4 7.4 0 0 0-2.24-.29c-1.61 0-3.34 1.18-3.34 2.68a2.13 2.13 0 0 0 1.45 2c-.46.29-1.38.77-1.38 1.37s.63.69 1 .88c-1 .36-2.69 1-2.69 2.18 0 1.55 2.31 1.84 3.53 1.84 1.39 0 3.81-.66 3.81-2.27 0-.93-.54-1.2-1.33-1.6ZM72 96.26l.47-.48a1.57 1.57 0 0 1 1-.55c.2 0 .27.13.27.29a3.2 3.2 0 0 1-.2.8l-1.68 4.73a.86.86 0 0 0 .55.21c.2 0 .58-.05.63-.18l.34-.91a9.5 9.5 0 0 1 2.14-3.27c.57-.59 1.55-1.67 2.5-1.67.19 0 .4.1.4.31a3.3 3.3 0 0 1-.22.8l-1.34 3.4a2.45 2.45 0 0 0-.24 1c0 .28.2.52.65.52a3.45 3.45 0 0 0 2.38-1.39l.62-.7L80 99c-.25.37-1 1.12-1.47 1.12-.24 0-.3-.14-.3-.34a2.7 2.7 0 0 1 .25-.83l1.37-3.52a2.3 2.3 0 0 0 .17-.78c0-.35-.15-.65-.68-.65-1.68 0-4.21 2.62-5 3.72l.89-2.42a2.2 2.2 0 0 0 .19-.76A.5.5 0 0 0 75 94a.4.4 0 0 0-.11 0c-1.13 0-2.33 1.26-3 2Zm-1.52-6a.74.74 0 1 0 .1 1.48.76.76 0 0 0 .69-.73.8.8 0 0 0-.79-.75m-2.84 6c.2-.26.85-1 1.21-1a.19.19 0 0 1 .21.17 2 2 0 0 1-.15.59l-1.48 4.06a3 3 0 0 0-.19.78c0 .37.16.64.66.64 1 0 2.19-1.44 2.72-2.11l-.28-.21c-.17.18-1.06 1-1.3 1s-.22-.08-.22-.24a2.6 2.6 0 0 1 .18-.64l1.4-4.06a3.4 3.4 0 0 0 .24-.89c0-.24-.11-.4-.53-.4-1 0-2.2 1.37-2.7 2.07Zm-3.93-2.07h-1.63l-.2.66h1.68L62 99.65a4.3 4.3 0 0 0-.22 1 .78.78 0 0 0 .71.83c1.25 0 2.66-1.5 3.43-2.3l-.24-.27c-.45.41-1.46 1.39-2.12 1.39a.32.32 0 0 1-.35-.29V100a1.7 1.7 0 0 1 .1-.5l1.49-4.62h1.82l.2-.66h-1.8l.71-2h-1.34Zm-4.4.29a1.44 1.44 0 0 0-1-.48c-2.21 0-5.55 3.67-5.55 6.22a1.21 1.21 0 0 0 1.14 1.28h.1c1.37 0 3-1.83 3.83-3.07l-.48 1.41a4.6 4.6 0 0 0-.29 1.16c0 .33.33.45.58.45 1.08 0 2.08-1.42 2.74-2.08l-.27-.2c-.33.27-.77.94-1.27.94a.18.18 0 0 1-.2-.18.9.9 0 0 1 .07-.4l1.69-5.68a.3.3 0 0 0 0-.13s0-.08-.15-.08H60c-.2 0-.31.21-.38.32ZM54 99.22c0-1.59 2-4.51 3.81-4.51a.88.88 0 0 1 .85.81c0 1.42-2.12 4.8-3.78 4.8-.67 0-.88-.56-.88-1.1m-6.79-1.46c.27-1.05 1.62-3.29 2.94-3.29a.64.64 0 0 1 .71.56v.12c0 1.75-2.08 2.51-3.65 2.61m4.16 1.39a4.8 4.8 0 0 1-3 1.49 1.24 1.24 0 0 1-1.37-1.1.6.6 0 0 1 0-.13 5 5 0 0 1 .14-1.23c1.83-.16 5.1-.92 5.1-3.09 0-.88-.9-1.13-1.67-1.13-2.57 0-5 2.82-5 5.38a2 2 0 0 0 1.83 2.16h.27a5.58 5.58 0 0 0 3.89-2.08Zm-12.26-2.78c.27-.32 1-1.07 1.43-1.07.23 0 .33.24.33.41a3.8 3.8 0 0 1-.21 1l-1.35 4.41a.3.3 0 0 0 0 .14c0 .15.32.29.55.29s.58 0 .61-.13l.31-1c.56-1.63 1.78-4.73 3-4.73.21 0 .43.06.63.06.53 0 .72-.82.72-1.18a.47.47 0 0 0-.39-.54.3.3 0 0 0-.14 0c-1.08 0-2.68 2.81-3.15 3.62l.55-2.26a3.4 3.4 0 0 0 .17-.83c0-.43-.27-.6-.7-.6-.84 0-2.16 1.54-2.59 2.14Zm-.57-6-.21-.11c-.15.13-.31.32-.53.32-.56 0-.87-.75-3.42-.75a6.56 6.56 0 0 0-6.75 6.27c0 3.25 2.42 5.37 5.7 5.37a5.9 5.9 0 0 0 2.2-.36 6 6 0 0 1 1.16-.39.94.94 0 0 1 .46.13l.69-2.72-.38-.08c-.82 1.79-1.93 2.91-4.11 2.91-2.65 0-3.94-2.08-3.94-4.86s1.82-5.76 5.31-5.76a3.2 3.2 0 0 1 2.25.77 2.17 2.17 0 0 1 .66 2l.34.1Z" style="fill:#231f20;stroke:#231f20;stroke-miterlimit:10;stroke-width:.25px" transform="translate(-27.21 -27.21)"/><path d="M.42 61.84h305.54V77.7H.42z" class="cls-1"/></g></svg>